<svg xmlns="http://www.w3.org/2000/svg" xmlns:xlink="http://www.w3.org/1999/xlink" version="1.1" viewBox="0 0 3028 2591" style="background: #111111"><defs><style>@import url(https://fonts.googleapis.com/css?family=Open+Sans:400,700);</style></defs><defs joint-selector="defs"></defs><g joint-selector="layers"  transform="matrix(1,0,0,1,0,0)"><g ></g><g ><g   id="j_341"  transform="translate(20,2553.5)"><g id="v-3923"><text  id="v-3924" font-size="22px" xml:space="preserve" y="0.8em" font-weight="normal" text-anchor="start" fill="#777777" pointer-events="none" display="block" font-family="Open Sans"><tspan dy="0" >воскресенье, 10 марта 2024 г. в 14:58 Москва, стандартное время</tspan></text></g></g><g   id="j_340"  transform="translate(20,2508.5)"><g id="v-3921"><text  id="v-3922" font-size="36px" xml:space="preserve" y="0.8em" font-weight="normal" text-anchor="start" fill="#bbbbbb" pointer-events="none" display="block" font-family="Open Sans"><tspan dy="0" >[Container] X-Tagram</tspan></text></g></g><g   id="j_342"  transform="translate(594,199)" style=""><g  id="v-3925" style="opacity: 1;"><rect  x="0" y="160" width="400" height="240" rx="70" id="v-3927" stroke="#073b6f" stroke-width="2" pointer-events="visiblePainted" fill="#08427b" style="fill: rgb(8, 66, 123); stroke: rgb(7, 59, 111);"></rect><circle  cx="200" cy="88.88888888888889" r="88.88888888888889" id="v-3926" stroke="#073b6f" stroke-width="2" pointer-events="visiblePainted" fill="#08427b" style="fill: rgb(8, 66, 123); stroke: rgb(7, 59, 111);"></circle><line  x1="80" y1="266.6666666666667" x2="80" y2="400" id="v-3933" stroke="#073b6f" stroke-width="2" style="stroke: rgb(7, 59, 111);"></line><line  x1="320" y1="266.6666666666667" x2="320" y2="400" id="v-3934" stroke="#073b6f" stroke-width="2" style="stroke: rgb(7, 59, 111);"></line><text  id="v-3928" font-size="34" xml:space="preserve" y="0.8em" font-weight="bold" text-anchor="middle" pointer-events="visible" font-family="Open Sans" fill="#ffffff" transform="matrix(1,0,0,1,200,243.1)" style="fill: rgb(255, 255, 255);"><tspan dy="0" >User</tspan></text><text  id="v-3929" font-size="17" xml:space="preserve" y="0.8em" text-anchor="middle" font-family="Open Sans" fill="#ffffff" transform="matrix(1,0,0,1,200,285.6)" style="fill: rgb(255, 255, 255);"><tspan dy="0" >[Person]</tspan></text><text  id="v-3930" font-size="24" xml:space="preserve" display="none" y="0.8em" text-anchor="middle" font-family="Open Sans" fill="#ffffff" transform="matrix(1,0,0,1,200,316.9)" style="fill: rgb(255, 255, 255);"><tspan dy="0" style="fill-opacity: 0; stroke-opacity: 0;" >-</tspan></text><g  id="v-3931" font-weight="normal" text-anchor="middle" color="#ffffff" transform="matrix(1,0,0,1,197.5,326.9)" display="none" style="fill: rgb(255, 255, 255);"><g ></g><g ></g><g ></g><g ></g></g><image  id="v-3932"></image></g></g><g   id="j_343"  transform="translate(1719,199)" style=""><g  id="v-3935" style="opacity: 1;"><rect  x="0" y="160" width="400" height="240" rx="70" id="v-3937" stroke="#073b6f" stroke-width="2" pointer-events="visiblePainted" fill="#08427b" style="fill: rgb(8, 66, 123); stroke: rgb(7, 59, 111);"></rect><circle  cx="200" cy="88.88888888888889" r="88.88888888888889" id="v-3936" stroke="#073b6f" stroke-width="2" pointer-events="visiblePainted" fill="#08427b" style="fill: rgb(8, 66, 123); stroke: rgb(7, 59, 111);"></circle><line  x1="80" y1="266.6666666666667" x2="80" y2="400" id="v-3943" stroke="#073b6f" stroke-width="2" style="stroke: rgb(7, 59, 111);"></line><line  x1="320" y1="266.6666666666667" x2="320" y2="400" id="v-3944" stroke="#073b6f" stroke-width="2" style="stroke: rgb(7, 59, 111);"></line><text  id="v-3938" font-size="34" xml:space="preserve" y="0.8em" font-weight="bold" text-anchor="middle" pointer-events="visible" font-family="Open Sans" fill="#ffffff" transform="matrix(1,0,0,1,200,243.1)" style="fill: rgb(255, 255, 255);"><tspan dy="0" >Moderator</tspan></text><text  id="v-3939" font-size="17" xml:space="preserve" y="0.8em" text-anchor="middle" font-family="Open Sans" fill="#ffffff" transform="matrix(1,0,0,1,200,285.6)" style="fill: rgb(255, 255, 255);"><tspan dy="0" >[Person]</tspan></text><text  id="v-3940" font-size="24" xml:space="preserve" display="none" y="0.8em" text-anchor="middle" font-family="Open Sans" fill="#ffffff" transform="matrix(1,0,0,1,200,316.9)" style="fill: rgb(255, 255, 255);"><tspan dy="0" style="fill-opacity: 0; stroke-opacity: 0;" >-</tspan></text><g  id="v-3941" font-weight="normal" text-anchor="middle" color="#ffffff" transform="matrix(1,0,0,1,197.5,326.9)" display="none" style="fill: rgb(255, 255, 255);"><g ></g><g ></g><g ></g><g ></g></g><image  id="v-3942"></image></g></g><g   id="j_344"  transform="translate(2377,1399)" style=""><g  id="v-3948" style="opacity: 1;"><rect  id="v-3949" rx="20" ry="20" stroke="#0f5eaa" stroke-width="2" pointer-events="visiblePainted" fill="#1168bd" width="450" height="300" style="fill: rgb(17, 104, 189); stroke: rgb(15, 94, 170);"></rect><text  id="v-3950" font-size="34" xml:space="preserve" y="0.8em" font-weight="bold" text-anchor="middle" pointer-events="visible" font-family="Open Sans" fill="#ffffff" transform="matrix(1,0,0,1,225,98.1)" style="fill: rgb(255, 255, 255);"><tspan dy="0" >CDN</tspan></text><text  id="v-3951" font-size="17" xml:space="preserve" y="0.8em" text-anchor="middle" font-family="Open Sans" fill="#ffffff" transform="matrix(1,0,0,1,225,140.6)" style="fill: rgb(255, 255, 255);"><tspan dy="0" >[Software System]</tspan></text><text  id="v-3952" font-size="24" xml:space="preserve" y="0.8em" text-anchor="middle" font-family="Open Sans" fill="#ffffff" transform="matrix(1,0,0,1,225,171.9)" style="fill: rgb(255, 255, 255);"><tspan dy="0" >Content Delivery Network</tspan></text><g  id="v-3953" color="#ffffff" transform="matrix(1,0,0,1,222.5,211.9)" display="none" style="fill: rgb(255, 255, 255);"><g ></g><g ></g><g ></g><g ></g></g><image  id="v-3954"></image></g></g><g   id="j_346"  transform="translate(199,779)" style=""><g id="v-3968"><rect  id="v-3969" width="1990" height="1611" rx="0" ry="0" fill="#111111" stroke="#0f5eaa" stroke-width="1" stroke-dasharray="20,20" pointer-events="none"></rect><text  id="v-3970" font-size="24px" xml:space="preserve" y="1572" font-weight="normal" fill="#0f5eaa" text-anchor="start" pointer-events="visible" font-family="Open Sans" transform="matrix(1,0,0,1,15,0)"><tspan dy="0" >X-Tagram</tspan></text><text  id="v-3971" font-size="17px" xml:space="preserve" y="1596" font-weight="normal" fill="#0f5eaa" text-anchor="start" pointer-events="visible" font-family="Open Sans" transform="matrix(1,0,0,1,15,0)"><tspan dy="0" >[Software System]</tspan></text><image  id="v-3972" pointer-events="visible"></image></g></g><g   id="j_345"  transform="translate(969,799)" style=""><g  id="v-3961" style="opacity: 1;"><rect  id="v-3962" rx="20" ry="20" stroke="#3c7fc0" stroke-width="2" pointer-events="visiblePainted" fill="#438dd5" width="450" height="300" style="fill: rgb(67, 141, 213); stroke: rgb(60, 127, 192);"></rect><text  id="v-3963" font-size="34" xml:space="preserve" y="0.8em" font-weight="bold" text-anchor="middle" pointer-events="visible" font-family="Open Sans" fill="#ffffff" transform="matrix(1,0,0,1,225,83.1)" style="fill: rgb(255, 255, 255);"><tspan dy="0" >NativeApplication</tspan></text><text  id="v-3964" font-size="17" xml:space="preserve" y="0.8em" text-anchor="middle" font-family="Open Sans" fill="#ffffff" transform="matrix(1,0,0,1,225,125.6)" style="fill: rgb(255, 255, 255);"><tspan dy="0" >[Container]</tspan></text><text  id="v-3965" font-size="24" xml:space="preserve" y="0.8em" text-anchor="middle" font-family="Open Sans" fill="#ffffff" transform="matrix(1,0,0,1,225,156.9)" style="fill: rgb(255, 255, 255);"><tspan dy="0" >Application for user to</tspan><tspan dy="1.2em" x="0" >communicate with sistem</tspan></text><g  id="v-3966" color="#ffffff" transform="matrix(1,0,0,1,222.5,226.9)" display="none" style="fill: rgb(255, 255, 255);"><g ></g><g ></g><g ></g><g ></g></g><image  id="v-3967"></image></g></g><g   id="j_347"  transform="translate(219,799)" style=""><g  id="v-3976" style="opacity: 1;"><rect  id="v-3977" rx="20" ry="20" stroke="#3c7fc0" stroke-width="2" pointer-events="visiblePainted" fill="#438dd5" width="450" height="300" style="fill: rgb(67, 141, 213); stroke: rgb(60, 127, 192);"></rect><text  id="v-3978" font-size="34" xml:space="preserve" y="0.8em" font-weight="bold" text-anchor="middle" pointer-events="visible" font-family="Open Sans" fill="#ffffff" transform="matrix(1,0,0,1,225,83.1)" style="fill: rgb(255, 255, 255);"><tspan dy="0" >WebApplication</tspan></text><text  id="v-3979" font-size="17" xml:space="preserve" y="0.8em" text-anchor="middle" font-family="Open Sans" fill="#ffffff" transform="matrix(1,0,0,1,225,125.6)" style="fill: rgb(255, 255, 255);"><tspan dy="0" >[Container]</tspan></text><text  id="v-3980" font-size="24" xml:space="preserve" y="0.8em" text-anchor="middle" font-family="Open Sans" fill="#ffffff" transform="matrix(1,0,0,1,225,156.9)" style="fill: rgb(255, 255, 255);"><tspan dy="0" >Delivers the static content and the</tspan><tspan dy="1.2em" x="0" >SinglePageApplication</tspan></text><g  id="v-3981" color="#ffffff" transform="matrix(1,0,0,1,222.5,226.9)" display="none" style="fill: rgb(255, 255, 255);"><g ></g><g ></g><g ></g><g ></g></g><image  id="v-3982"></image></g></g><g   id="j_348"  transform="translate(969,1399)" style=""><g  id="v-3986" style="opacity: 1;"><rect  id="v-3987" rx="20" ry="20" stroke="#3c7fc0" stroke-width="2" pointer-events="visiblePainted" fill="#438dd5" width="450" height="300" style="fill: rgb(67, 141, 213); stroke: rgb(60, 127, 192);"></rect><text  id="v-3988" font-size="34" xml:space="preserve" y="0.8em" font-weight="bold" text-anchor="middle" pointer-events="visible" font-family="Open Sans" fill="#ffffff" transform="matrix(1,0,0,1,225,98.1)" style="fill: rgb(255, 255, 255);"><tspan dy="0" >ApiApplication</tspan></text><text  id="v-3989" font-size="17" xml:space="preserve" y="0.8em" text-anchor="middle" font-family="Open Sans" fill="#ffffff" transform="matrix(1,0,0,1,225,140.6)" style="fill: rgb(255, 255, 255);"><tspan dy="0" >[Container: python, FastAPI]</tspan></text><text  id="v-3990" font-size="24" xml:space="preserve" y="0.8em" text-anchor="middle" font-family="Open Sans" fill="#ffffff" transform="matrix(1,0,0,1,225,171.9)" style="fill: rgb(255, 255, 255);"><tspan dy="0" >Provides functionality via API.</tspan></text><g  id="v-3991" color="#ffffff" transform="matrix(1,0,0,1,222.5,211.9)" display="none" style="fill: rgb(255, 255, 255);"><g ></g><g ></g><g ></g><g ></g></g><image  id="v-3992"></image></g></g><g   id="j_349"  transform="translate(219,1999)" style=""><g  id="v-3999" style="opacity: 1;"><rect  id="v-4000" rx="20" ry="20" stroke="#3c7fc0" stroke-width="2" pointer-events="visiblePainted" fill="#438dd5" width="450" height="300" style="fill: rgb(67, 141, 213); stroke: rgb(60, 127, 192);"></rect><text  id="v-4001" font-size="34" xml:space="preserve" y="0.8em" font-weight="bold" text-anchor="middle" pointer-events="visible" font-family="Open Sans" fill="#ffffff" transform="matrix(1,0,0,1,225,83.1)" style="fill: rgb(255, 255, 255);"><tspan dy="0" >RealtimeEventProvider</tspan></text><text  id="v-4002" font-size="17" xml:space="preserve" y="0.8em" text-anchor="middle" font-family="Open Sans" fill="#ffffff" transform="matrix(1,0,0,1,225,125.6)" style="fill: rgb(255, 255, 255);"><tspan dy="0" >[Container: centrifugo]</tspan></text><text  id="v-4003" font-size="24" xml:space="preserve" y="0.8em" text-anchor="middle" font-family="Open Sans" fill="#ffffff" transform="matrix(1,0,0,1,225,156.9)" style="fill: rgb(255, 255, 255);"><tspan dy="0" >Provede keep alive connections</tspan><tspan dy="1.2em" x="0" >with realtime events</tspan></text><g  id="v-4004" color="#ffffff" transform="matrix(1,0,0,1,210,226.9)" display="none" style="fill: rgb(255, 255, 255);"><g  transform="translate(5 0)"><svg xmlns="http://www.w3.org/2000/svg" width="20" height="20" fill="currentColor" viewBox="0 0 16 16"><path fill-rule="evenodd" d="M6.5 12a5.5 5.5 0 1 0 0-11 5.5 5.5 0 0 0 0 11zM13 6.5a6.5 6.5 0 1 1-13 0 6.5 6.5 0 0 1 13 0z"></path><path d="M10.344 11.742c.03.04.062.078.098.115l3.85 3.85a1 1 0 0 0 1.415-1.414l-3.85-3.85a1.007 1.007 0 0 0-.115-.1 6.538 6.538 0 0 1-1.398 1.4z"></path><path fill-rule="evenodd" d="M6.5 3a.5.5 0 0 1 .5.5V6h2.5a.5.5 0 0 1 0 1H7v2.5a.5.5 0 0 1-1 0V7H3.5a.5.5 0 0 1 0-1H6V3.5a.5.5 0 0 1 .5-.5z"></path></svg></g><g ></g><g ></g><g ></g></g><image  id="v-4005"></image></g></g><g   id="j_350"  transform="translate(969,1999)" style=""><g  id="v-4006" style="opacity: 1;"><rect  id="v-4007" rx="20" ry="20" stroke="#3c7fc0" stroke-width="2" pointer-events="visiblePainted" fill="#438dd5" width="450" height="300" style="fill: rgb(67, 141, 213); stroke: rgb(60, 127, 192);"></rect><text  id="v-4008" font-size="34" xml:space="preserve" y="0.8em" font-weight="bold" text-anchor="middle" pointer-events="visible" font-family="Open Sans" fill="#ffffff" transform="matrix(1,0,0,1,225,98.1)" style="fill: rgb(255, 255, 255);"><tspan dy="0" >Database</tspan></text><text  id="v-4009" font-size="17" xml:space="preserve" y="0.8em" text-anchor="middle" font-family="Open Sans" fill="#ffffff" transform="matrix(1,0,0,1,225,140.6)" style="fill: rgb(255, 255, 255);"><tspan dy="0" >[Container: YDB, postgresql]</tspan></text><text  id="v-4010" font-size="24" xml:space="preserve" y="0.8em" text-anchor="middle" font-family="Open Sans" fill="#ffffff" transform="matrix(1,0,0,1,225,171.9)" style="fill: rgb(255, 255, 255);"><tspan dy="0" >Stores user data.</tspan></text><g  id="v-4011" color="#ffffff" transform="matrix(1,0,0,1,222.5,211.9)" display="none" style="fill: rgb(255, 255, 255);"><g ></g><g ></g><g ></g><g ></g></g><image  id="v-4012"></image></g></g><g   id="j_351"  transform="translate(1719,1999)" style=""><g  id="v-4016" style="opacity: 1;"><rect  id="v-4017" rx="20" ry="20" stroke="#3c7fc0" stroke-width="2" pointer-events="visiblePainted" fill="#438dd5" width="450" height="300" style="fill: rgb(67, 141, 213); stroke: rgb(60, 127, 192);"></rect><text  id="v-4018" font-size="34" xml:space="preserve" y="0.8em" font-weight="bold" text-anchor="middle" pointer-events="visible" font-family="Open Sans" fill="#ffffff" transform="matrix(1,0,0,1,225,98.1)" style="fill: rgb(255, 255, 255);"><tspan dy="0" >SearchEngine</tspan></text><text  id="v-4019" font-size="17" xml:space="preserve" y="0.8em" text-anchor="middle" font-family="Open Sans" fill="#ffffff" transform="matrix(1,0,0,1,225,140.6)" style="fill: rgb(255, 255, 255);"><tspan dy="0" >[Container]</tspan></text><text  id="v-4020" font-size="24" xml:space="preserve" y="0.8em" text-anchor="middle" font-family="Open Sans" fill="#ffffff" transform="matrix(1,0,0,1,225,171.9)" style="fill: rgb(255, 255, 255);"><tspan dy="0" >Stores index for fast serch user</tspan></text><g  id="v-4021" color="#ffffff" transform="matrix(1,0,0,1,210,211.9)" display="none" style="fill: rgb(255, 255, 255);"><g  transform="translate(5 0)"><svg xmlns="http://www.w3.org/2000/svg" width="20" height="20" fill="currentColor" viewBox="0 0 16 16"><path fill-rule="evenodd" d="M6.5 12a5.5 5.5 0 1 0 0-11 5.5 5.5 0 0 0 0 11zM13 6.5a6.5 6.5 0 1 1-13 0 6.5 6.5 0 0 1 13 0z"></path><path d="M10.344 11.742c.03.04.062.078.098.115l3.85 3.85a1 1 0 0 0 1.415-1.414l-3.85-3.85a1.007 1.007 0 0 0-.115-.1 6.538 6.538 0 0 1-1.398 1.4z"></path><path fill-rule="evenodd" d="M6.5 3a.5.5 0 0 1 .5.5V6h2.5a.5.5 0 0 1 0 1H7v2.5a.5.5 0 0 1-1 0V7H3.5a.5.5 0 0 1 0-1H6V3.5a.5.5 0 0 1 .5-.5z"></path></svg></g><g ></g><g ></g><g ></g></g><image  id="v-4022"></image></g></g><g   id="j_352"  transform="translate(1719,799)" style=""><g  id="v-4023" style="opacity: 1;"><rect  id="v-4024" rx="20" ry="20" stroke="#3c7fc0" stroke-width="2" pointer-events="visiblePainted" fill="#438dd5" width="450" height="300" style="fill: rgb(67, 141, 213); stroke: rgb(60, 127, 192);"></rect><text  id="v-4025" font-size="34" xml:space="preserve" y="0.8em" font-weight="bold" text-anchor="middle" pointer-events="visible" font-family="Open Sans" fill="#ffffff" transform="matrix(1,0,0,1,225,98.1)" style="fill: rgb(255, 255, 255);"><tspan dy="0" >Adminka</tspan></text><text  id="v-4026" font-size="17" xml:space="preserve" y="0.8em" text-anchor="middle" font-family="Open Sans" fill="#ffffff" transform="matrix(1,0,0,1,225,140.6)" style="fill: rgb(255, 255, 255);"><tspan dy="0" >[Container: python, django]</tspan></text><text  id="v-4027" font-size="24" xml:space="preserve" y="0.8em" text-anchor="middle" font-family="Open Sans" fill="#ffffff" transform="matrix(1,0,0,1,225,171.9)" style="fill: rgb(255, 255, 255);"><tspan dy="0" >Administration panel</tspan></text><g  id="v-4028" color="#ffffff" transform="matrix(1,0,0,1,222.5,211.9)" display="none" style="fill: rgb(255, 255, 255);"><g ></g><g ></g><g ></g><g ></g></g><image  id="v-4029"></image></g></g><g   id="j_353" ><path  stroke="#aaaaaa" d="M 939 599 L 1085 799" id="v-4042" stroke-width="2" stroke-dasharray="30 30" fill="none" style="opacity: 1;"></path><path  fill="black" stroke="black" d="M 0 0 0 0" transform="matrix(0.588186140460437,0.8087255802620905,-0.8087255802620905,0.588186140460437,939.4500122070312,599)"></path><path  fill="#aaaaaa" stroke="#aaaaaa" d="M 20 0 L 0 10 L 20 20 z" id="v-4044" transform="matrix(-0.5881861404604367,-0.8087255802620907,0.8087255802620907,-0.5881861404604367,1076.822803844171,804.8818369337878)" style="opacity: 1;"></path><path  d="M 939 599 L 1085 799" id="v-4043" fill="none" style="cursor: auto; pointer-events: visiblepainted;"></path><g ><g id="v-4036"  label-idx="0" cursor="move" transform="matrix(1,0,0,1,1012,699)" style="cursor: default; opacity: 1;"><rect joint-selector="rect" id="v-4039" fill="#111111" rx="3" ry="3" pointer-events="none" width="194.17819213867188" height="90.12301635742188" transform="matrix(1,0,0,1,-97.1,-45.1)"></rect><text joint-selector="text" id="v-4038" font-size="24px" xml:space="preserve" y="0.8em" fill="#aaaaaa" text-anchor="middle" pointer-events="none" font-family="Open Sans" font-weight="normal" transform="matrix(1,0,0,1,0,-39)"><tspan dy="0" >Create account,</tspan><tspan dy="1.2em" x="0" >posting, chatting,</tspan><tspan dy="1.2em" x="0" >find users to chat</tspan></text></g><g id="v-4037"  label-idx="1" cursor="move" transform="matrix(1,0,0,1,1002,756)" style="cursor: default; opacity: 1;"><rect joint-selector="rect" id="v-4041" fill="#ffffff" rx="3" ry="3"  width="0" height="0" transform="matrix(1,0,0,1,0,0)" display="none"></rect><text joint-selector="text" id="v-4040" fill="#000000" font-size="14" text-anchor="middle" pointer-events="none"></text></g></g><g  display="none" style="display: none;"></g><g  id="v-4046" display="none"><g  id="v-4034"><path  end="source" d="M 26 0 L 0 13 L 26 26 z"></path></g><g  id="v-4035"><path  end="target" d="M 26 0 L 0 13 L 26 26 z"></path></g></g><g  id="v-4045" display="none"><g  id="v-4033" transform="translate(962.5844601323932, 631.3074796334155) "><g  event="remove"><circle r="11"></circle><path transform="scale(.8) translate(-16, -16)" d="M24.778,21.419 19.276,15.917 24.777,10.415 21.949,7.585 16.447,13.087 10.945,7.585 8.117,10.415 13.618,15.917 8.116,21.419 10.946,24.248 16.447,18.746 21.948,24.248z"></path><title>Remove link.</title></g><g  event="link:options"><circle r="11" transform="translate(25)"></circle><path fill="white" transform="scale(.55) translate(29, -16)" d="M31.229,17.736c0.064-0.571,0.104-1.148,0.104-1.736s-0.04-1.166-0.104-1.737l-4.377-1.557c-0.218-0.716-0.504-1.401-0.851-2.05l1.993-4.192c-0.725-0.91-1.549-1.734-2.458-2.459l-4.193,1.994c-0.647-0.347-1.334-0.632-2.049-0.849l-1.558-4.378C17.165,0.708,16.588,0.667,16,0.667s-1.166,0.041-1.737,0.105L12.707,5.15c-0.716,0.217-1.401,0.502-2.05,0.849L6.464,4.005C5.554,4.73,4.73,5.554,4.005,6.464l1.994,4.192c-0.347,0.648-0.632,1.334-0.849,2.05l-4.378,1.557C0.708,14.834,0.667,15.412,0.667,16s0.041,1.165,0.105,1.736l4.378,1.558c0.217,0.715,0.502,1.401,0.849,2.049l-1.994,4.193c0.725,0.909,1.549,1.733,2.459,2.458l4.192-1.993c0.648,0.347,1.334,0.633,2.05,0.851l1.557,4.377c0.571,0.064,1.148,0.104,1.737,0.104c0.588,0,1.165-0.04,1.736-0.104l1.558-4.377c0.715-0.218,1.399-0.504,2.049-0.851l4.193,1.993c0.909-0.725,1.733-1.549,2.458-2.458l-1.993-4.193c0.347-0.647,0.633-1.334,0.851-2.049L31.229,17.736zM16,20.871c-2.69,0-4.872-2.182-4.872-4.871c0-2.69,2.182-4.872,4.872-4.872c2.689,0,4.871,2.182,4.871,4.872C20.871,18.689,18.689,20.871,16,20.871z"></path><title>Link options.</title></g></g></g></g><g   id="j_354" ><path  stroke="#aaaaaa" d="M 667 599 L 539 799" id="v-4059" stroke-width="2" stroke-dasharray="30 30" fill="none" style="opacity: 1;"></path><path  fill="black" stroke="black" d="M 0 0 0 0" transform="matrix(-0.536897273011353,0.8436476268164171,-0.8436476268164171,-0.536897273011353,666.72998046875,599)"></path><path  fill="#aaaaaa" stroke="#aaaaaa" d="M 20 0 L 0 10 L 20 20 z" id="v-4061" transform="matrix(0.536897497688287,-0.8436474838319947,0.8436474838319947,0.536897497688287,531.0135199113597,793.6310374590934)" style="opacity: 1;"></path><path  d="M 667 599 L 539 799" id="v-4060" fill="none" style="cursor: auto; pointer-events: visiblepainted;"></path><g ><g id="v-4053"  label-idx="0" cursor="move" transform="matrix(1,0,0,1,603,699)" style="cursor: default; opacity: 1;"><rect joint-selector="rect" id="v-4056" fill="#111111" rx="3" ry="3" pointer-events="none" width="199.59869384765625" height="90.12301635742188" transform="matrix(1,0,0,1,-99.8,-45.1)"></rect><text joint-selector="text" id="v-4055" font-size="24px" xml:space="preserve" y="0.8em" fill="#aaaaaa" text-anchor="middle" pointer-events="none" font-family="Open Sans" font-weight="normal" transform="matrix(1,0,0,1,0,-39)"><tspan dy="0" >Vitit to get static</tspan><tspan dy="1.2em" x="0" >and SinglePageAp</tspan><tspan dy="1.2em" x="0" >plication code</tspan></text></g><g id="v-4054"  label-idx="1" cursor="move" transform="matrix(1,0,0,1,593,756)" style="cursor: default; opacity: 1;"><rect joint-selector="rect" id="v-4058" fill="#ffffff" rx="3" ry="3"  width="0" height="0" transform="matrix(1,0,0,1,0,0)" display="none"></rect><text joint-selector="text" id="v-4057" fill="#000000" font-size="14" text-anchor="middle" pointer-events="none"></text></g></g><g  display="none" style="display: none;"></g><g  id="v-4063" display="none"><g  id="v-4051"><path  end="source" d="M 26 0 L 0 13 L 26 26 z"></path></g><g  id="v-4052"><path  end="target" d="M 26 0 L 0 13 L 26 26 z"></path></g></g><g  id="v-4062" display="none"><g  id="v-4050" transform="translate(645.4378521430654, 632.6908560264604) "><g  event="remove"><circle r="11"></circle><path transform="scale(.8) translate(-16, -16)" d="M24.778,21.419 19.276,15.917 24.777,10.415 21.949,7.585 16.447,13.087 10.945,7.585 8.117,10.415 13.618,15.917 8.116,21.419 10.946,24.248 16.447,18.746 21.948,24.248z"></path><title>Remove link.</title></g><g  event="link:options"><circle r="11" transform="translate(25)"></circle><path fill="white" transform="scale(.55) translate(29, -16)" d="M31.229,17.736c0.064-0.571,0.104-1.148,0.104-1.736s-0.04-1.166-0.104-1.737l-4.377-1.557c-0.218-0.716-0.504-1.401-0.851-2.05l1.993-4.192c-0.725-0.91-1.549-1.734-2.458-2.459l-4.193,1.994c-0.647-0.347-1.334-0.632-2.049-0.849l-1.558-4.378C17.165,0.708,16.588,0.667,16,0.667s-1.166,0.041-1.737,0.105L12.707,5.15c-0.716,0.217-1.401,0.502-2.05,0.849L6.464,4.005C5.554,4.73,4.73,5.554,4.005,6.464l1.994,4.192c-0.347,0.648-0.632,1.334-0.849,2.05l-4.378,1.557C0.708,14.834,0.667,15.412,0.667,16s0.041,1.165,0.105,1.736l4.378,1.558c0.217,0.715,0.502,1.401,0.849,2.049l-1.994,4.193c0.725,0.909,1.549,1.733,2.459,2.458l4.192-1.993c0.648,0.347,1.334,0.633,2.05,0.851l1.557,4.377c0.571,0.064,1.148,0.104,1.737,0.104c0.588,0,1.165-0.04,1.736-0.104l1.558-4.377c0.715-0.218,1.399-0.504,2.049-0.851l4.193,1.993c0.909-0.725,1.733-1.549,2.458-2.458l-1.993-4.193c0.347-0.647,0.633-1.334,0.851-2.049L31.229,17.736zM16,20.871c-2.69,0-4.872-2.182-4.872-4.871c0-2.69,2.182-4.872,4.872-4.872c2.689,0,4.871,2.182,4.871,4.872C20.871,18.689,18.689,20.871,16,20.871z"></path><title>Link options.</title></g></g></g></g><g   id="j_355" ><path  stroke="#aaaaaa" d="M 1419 1039 L 1560 1095 C 1566 1097.6666666666665 1572 1100.3333333333333 1578 1103 L 2377 1451" id="v-4080" stroke-width="2" stroke-dasharray="30 30" fill="none" style="opacity: 1;"></path><path  fill="black" stroke="black" d="M 0 0 0 0" transform="matrix(0.9284766955435519,0.371390664708372,-0.371390664708372,0.9284766955435519,1419,1039)"></path><path  fill="#aaaaaa" stroke="#aaaaaa" d="M 20 0 L 0 10 L 20 20 z" id="v-4082" transform="matrix(-0.9167894954584597,-0.39937078137618304,0.39937078137618304,-0.9167894954584597,2373.0062183908226,1460.1479308933465)" style="opacity: 1;"></path><path  d="M 1419 1039 L 1560 1095 C 1566 1097.6666666666665 1572 1100.3333333333333 1578 1103 L 2377 1451" id="v-4081" fill="none" style="cursor: auto; pointer-events: visiblepainted;"></path><g ><g id="v-4071"  label-idx="0" cursor="move" transform="matrix(1,0,0,1,1898.923828125,1242.776611328125)" style="cursor: default; opacity: 1;"><rect joint-selector="rect" id="v-4075" fill="#111111" rx="3" ry="3" pointer-events="none" width="193.98056030273438" height="90.12301635742188" transform="matrix(1,0,0,1,-97,-45.1)"></rect><text joint-selector="text" id="v-4074" font-size="24px" xml:space="preserve" y="0.8em" fill="#aaaaaa" text-anchor="middle" pointer-events="none" font-family="Open Sans" font-weight="normal" transform="matrix(1,0,0,1,0,-39)"><tspan dy="0" >get static content</tspan><tspan dy="1.2em" x="0" >and upload users</tspan><tspan dy="1.2em" x="0" >content</tspan></text></g><g id="v-4072"  label-idx="1" cursor="move" transform="matrix(1,0,0,1,1898.923828125,1299.776611328125)" style="cursor: default; opacity: 1;"><rect joint-selector="rect" id="v-4077" fill="#111111" rx="3" ry="3" pointer-events="none" width="85.73992156982422" height="23.48884105682373" transform="matrix(1,0,0,1,-42.9,-11.8)"></rect><text joint-selector="text" id="v-4076" font-size="17px" xml:space="preserve" y="0.8em" fill="#aaaaaa" text-anchor="middle" pointer-events="none" font-family="Open Sans" font-weight="normal" transform="matrix(1,0,0,1,0,-7.3)"><tspan dy="0" >[https:443]</tspan></text></g><g id="v-4073"  label-idx="2" cursor="move" transform="matrix(1,0,0,1,1888.923828125,1309.026611328125)" style="cursor: default; opacity: 1;"><rect joint-selector="rect" id="v-4079" fill="#ffffff" rx="3" ry="3"  width="0" height="0" transform="matrix(1,0,0,1,0,0)" display="none"></rect><text joint-selector="text" id="v-4078" fill="#000000" font-size="14" text-anchor="middle" pointer-events="none"></text></g></g><g  display="none" style="display: none;"><g  transform="translate(1569, 1099)" id="v-4068"><circle  idx="0" r="10"></circle><path  idx="0" d="M16,5.333c-7.732,0-14,4.701-14,10.5c0,1.982,0.741,3.833,2.016,5.414L2,25.667l5.613-1.441c2.339,1.317,5.237,2.107,8.387,2.107c7.732,0,14-4.701,14-10.5C30,10.034,23.732,5.333,16,5.333z" transform="translate(5, -33)"></path><path  idx="0" transform="scale(.8) translate(9.5, -37)" d="M24.778,21.419 19.276,15.917 24.777,10.415 21.949,7.585 16.447,13.087 10.945,7.585 8.117,10.415 13.618,15.917 8.116,21.419 10.946,24.248 16.447,18.746 21.948,24.248z"><title>Remove vertex.</title></path></g></g><g  id="v-4084" display="none"><g  id="v-4069"><path  end="source" d="M 26 0 L 0 13 L 26 26 z"></path></g><g  id="v-4070"><path  end="target" d="M 26 0 L 0 13 L 26 26 z"></path></g></g><g  id="v-4083" display="none"><g  id="v-4067" transform="translate(1456.1753225311058, 1053.7646671045527) "><g  event="remove"><circle r="11"></circle><path transform="scale(.8) translate(-16, -16)" d="M24.778,21.419 19.276,15.917 24.777,10.415 21.949,7.585 16.447,13.087 10.945,7.585 8.117,10.415 13.618,15.917 8.116,21.419 10.946,24.248 16.447,18.746 21.948,24.248z"></path><title>Remove link.</title></g><g  event="link:options"><circle r="11" transform="translate(25)"></circle><path fill="white" transform="scale(.55) translate(29, -16)" d="M31.229,17.736c0.064-0.571,0.104-1.148,0.104-1.736s-0.04-1.166-0.104-1.737l-4.377-1.557c-0.218-0.716-0.504-1.401-0.851-2.05l1.993-4.192c-0.725-0.91-1.549-1.734-2.458-2.459l-4.193,1.994c-0.647-0.347-1.334-0.632-2.049-0.849l-1.558-4.378C17.165,0.708,16.588,0.667,16,0.667s-1.166,0.041-1.737,0.105L12.707,5.15c-0.716,0.217-1.401,0.502-2.05,0.849L6.464,4.005C5.554,4.73,4.73,5.554,4.005,6.464l1.994,4.192c-0.347,0.648-0.632,1.334-0.849,2.05l-4.378,1.557C0.708,14.834,0.667,15.412,0.667,16s0.041,1.165,0.105,1.736l4.378,1.558c0.217,0.715,0.502,1.401,0.849,2.049l-1.994,4.193c0.725,0.909,1.549,1.733,2.459,2.458l4.192-1.993c0.648,0.347,1.334,0.633,2.05,0.851l1.557,4.377c0.571,0.064,1.148,0.104,1.737,0.104c0.588,0,1.165-0.04,1.736-0.104l1.558-4.377c0.715-0.218,1.399-0.504,2.049-0.851l4.193,1.993c0.909-0.725,1.733-1.549,2.458-2.458l-1.993-4.193c0.347-0.647,0.633-1.334,0.851-2.049L31.229,17.736zM16,20.871c-2.69,0-4.872-2.182-4.872-4.871c0-2.69,2.182-4.872,4.872-4.872c2.689,0,4.871,2.182,4.871,4.872C20.871,18.689,18.689,20.871,16,20.871z"></path><title>Link options.</title></g></g></g></g><g   id="j_356" ><path  stroke="#aaaaaa" d="M 1069 1099 L 825 1391 C 821 1396.3333333333333 817.6666666666666 1402 815 1408 L 519 1999" id="v-4101" stroke-width="2" stroke-dasharray="30 30" fill="none" style="opacity: 1;"></path><path  fill="black" stroke="black" d="M 0 0 0 0" transform="matrix(-0.6401844186703123,0.7682212637591818,-0.7682212637591818,-0.6401844186703123,1069,1099)"></path><path  fill="#aaaaaa" stroke="#aaaaaa" d="M 20 0 L 0 10 L 20 20 z" id="v-4103" transform="matrix(0.4472137875035034,-0.8944270949981173,0.8944270949981173,0.4472137875035034,510.05569810857753,1994.5279192077587)" style="opacity: 1;"></path><path  d="M 1069 1099 L 825 1391 C 821 1396.3333333333333 817.6666666666666 1402 815 1408 L 519 1999" id="v-4102" fill="none" style="cursor: auto; pointer-events: visiblepainted;"></path><g ><g id="v-4092"  label-idx="0" cursor="move" transform="matrix(1,0,0,1,756.6282958984375,1524.546142578125)" style="cursor: default; opacity: 1;"><rect joint-selector="rect" id="v-4096" fill="#111111" rx="3" ry="3" pointer-events="none" width="179.21534729003906" height="32.52301025390625" transform="matrix(1,0,0,1,-89.6,-16.3)"></rect><text joint-selector="text" id="v-4095" font-size="24px" xml:space="preserve" y="0.8em" fill="#aaaaaa" text-anchor="middle" pointer-events="none" font-family="Open Sans" font-weight="normal" transform="matrix(1,0,0,1,0,-10.2)"><tspan dy="0" >get notifications</tspan></text></g><g id="v-4093"  label-idx="1" cursor="move" transform="matrix(1,0,0,1,756.6282958984375,1551.546142578125)" style="cursor: default; opacity: 1;"><rect joint-selector="rect" id="v-4098" fill="#111111" rx="3" ry="3" pointer-events="none" width="74.08019256591797" height="23.48884105682373" transform="matrix(1,0,0,1,-37,-11.8)"></rect><text joint-selector="text" id="v-4097" font-size="17px" xml:space="preserve" y="0.8em" fill="#aaaaaa" text-anchor="middle" pointer-events="none" font-family="Open Sans" font-weight="normal" transform="matrix(1,0,0,1,0,-7.3)"><tspan dy="0" >[wss:443]</tspan></text></g><g id="v-4094"  label-idx="2" cursor="move" transform="matrix(1,0,0,1,746.6282958984375,1560.796142578125)" style="cursor: default; opacity: 1;"><rect joint-selector="rect" id="v-4100" fill="#ffffff" rx="3" ry="3"  width="0" height="0" transform="matrix(1,0,0,1,0,0)" display="none"></rect><text joint-selector="text" id="v-4099" fill="#000000" font-size="14" text-anchor="middle" pointer-events="none"></text></g></g><g  display="none" style="display: none;"><g  transform="translate(819, 1399)" id="v-4089"><circle  idx="0" r="10"></circle><path  idx="0" d="M16,5.333c-7.732,0-14,4.701-14,10.5c0,1.982,0.741,3.833,2.016,5.414L2,25.667l5.613-1.441c2.339,1.317,5.237,2.107,8.387,2.107c7.732,0,14-4.701,14-10.5C30,10.034,23.732,5.333,16,5.333z" transform="translate(5, -33)"></path><path  idx="0" transform="scale(.8) translate(9.5, -37)" d="M24.778,21.419 19.276,15.917 24.777,10.415 21.949,7.585 16.447,13.087 10.945,7.585 8.117,10.415 13.618,15.917 8.116,21.419 10.946,24.248 16.447,18.746 21.948,24.248z"><title>Remove vertex.</title></path></g></g><g  id="v-4105" display="none"><g  id="v-4090"><path  end="source" d="M 26 0 L 0 13 L 26 26 z"></path></g><g  id="v-4091"><path  end="target" d="M 26 0 L 0 13 L 26 26 z"></path></g></g><g  id="v-4104" display="none"><g  id="v-4088" transform="translate(1043.3512894360913, 1129.694358543694) "><g  event="remove"><circle r="11"></circle><path transform="scale(.8) translate(-16, -16)" d="M24.778,21.419 19.276,15.917 24.777,10.415 21.949,7.585 16.447,13.087 10.945,7.585 8.117,10.415 13.618,15.917 8.116,21.419 10.946,24.248 16.447,18.746 21.948,24.248z"></path><title>Remove link.</title></g><g  event="link:options"><circle r="11" transform="translate(25)"></circle><path fill="white" transform="scale(.55) translate(29, -16)" d="M31.229,17.736c0.064-0.571,0.104-1.148,0.104-1.736s-0.04-1.166-0.104-1.737l-4.377-1.557c-0.218-0.716-0.504-1.401-0.851-2.05l1.993-4.192c-0.725-0.91-1.549-1.734-2.458-2.459l-4.193,1.994c-0.647-0.347-1.334-0.632-2.049-0.849l-1.558-4.378C17.165,0.708,16.588,0.667,16,0.667s-1.166,0.041-1.737,0.105L12.707,5.15c-0.716,0.217-1.401,0.502-2.05,0.849L6.464,4.005C5.554,4.73,4.73,5.554,4.005,6.464l1.994,4.192c-0.347,0.648-0.632,1.334-0.849,2.05l-4.378,1.557C0.708,14.834,0.667,15.412,0.667,16s0.041,1.165,0.105,1.736l4.378,1.558c0.217,0.715,0.502,1.401,0.849,2.049l-1.994,4.193c0.725,0.909,1.549,1.733,2.459,2.458l4.192-1.993c0.648,0.347,1.334,0.633,2.05,0.851l1.557,4.377c0.571,0.064,1.148,0.104,1.737,0.104c0.588,0,1.165-0.04,1.736-0.104l1.558-4.377c0.715-0.218,1.399-0.504,2.049-0.851l4.193,1.993c0.909-0.725,1.733-1.549,2.458-2.458l-1.993-4.193c0.347-0.647,0.633-1.334,0.851-2.049L31.229,17.736zM16,20.871c-2.69,0-4.872-2.182-4.872-4.871c0-2.69,2.182-4.872,4.872-4.872c2.689,0,4.871,2.182,4.871,4.872C20.871,18.689,18.689,20.871,16,20.871z"></path><title>Link options.</title></g></g></g></g><g   id="j_357" ><path  stroke="#aaaaaa" d="M 1194 1099 L 1194 1399" id="v-4121" stroke-width="2" stroke-dasharray="30 30" fill="none" style="opacity: 1;"></path><path  fill="black" stroke="black" d="M 0 0 0 0" transform="matrix(6.123233995736766e-17,1,-1,6.123233995736766e-17,1194,1099)"></path><path  fill="#aaaaaa" stroke="#aaaaaa" d="M 20 0 L 0 10 L 20 20 z" id="v-4123" transform="matrix(-1.8369701987210297e-16,-1,1,-1.8369701987210297e-16,1184,1399)" style="opacity: 1;"></path><path  d="M 1194 1099 L 1194 1399" id="v-4122" fill="none" style="cursor: auto; pointer-events: visiblepainted;"></path><g ><g id="v-4112"  label-idx="0" cursor="move" transform="matrix(1,0,0,1,1194,1249)" style="cursor: default; opacity: 1;"><rect joint-selector="rect" id="v-4116" fill="#111111" rx="3" ry="3" pointer-events="none" width="189.49171447753906" height="176.52301025390625" transform="matrix(1,0,0,1,-94.7,-88.3)"></rect><text joint-selector="text" id="v-4115" font-size="24px" xml:space="preserve" y="0.8em" fill="#aaaaaa" text-anchor="middle" pointer-events="none" font-family="Open Sans" font-weight="normal" transform="matrix(1,0,0,1,0,-82.2)"><tspan dy="0" >create account,</tspan><tspan dy="1.2em" x="0" >get message</tspan><tspan dy="1.2em" x="0" >history, send</tspan><tspan dy="1.2em" x="0" >message to user,</tspan><tspan dy="1.2em" x="0" >make post, get</tspan><tspan dy="1.2em" x="0" >users page</tspan></text></g><g id="v-4113"  label-idx="1" cursor="move" transform="matrix(1,0,0,1,1194,1351)" style="cursor: default; opacity: 1;"><rect joint-selector="rect" id="v-4118" fill="#111111" rx="3" ry="3" pointer-events="none" width="85.73992156982422" height="23.48884105682373" transform="matrix(1,0,0,1,-42.9,-11.8)"></rect><text joint-selector="text" id="v-4117" font-size="17px" xml:space="preserve" y="0.8em" fill="#aaaaaa" text-anchor="middle" pointer-events="none" font-family="Open Sans" font-weight="normal" transform="matrix(1,0,0,1,0,-7.3)"><tspan dy="0" >[https:443]</tspan></text></g><g id="v-4114"  label-idx="2" cursor="move" transform="matrix(1,0,0,1,1184,1360.25)" style="cursor: default; opacity: 1;"><rect joint-selector="rect" id="v-4120" fill="#ffffff" rx="3" ry="3"  width="0" height="0" transform="matrix(1,0,0,1,0,0)" display="none"></rect><text joint-selector="text" id="v-4119" fill="#000000" font-size="14" text-anchor="middle" pointer-events="none"></text></g></g><g  display="none" style="display: none;"></g><g  id="v-4125" display="none"><g  id="v-4110"><path  end="source" d="M 26 0 L 0 13 L 26 26 z"></path></g><g  id="v-4111"><path  end="target" d="M 26 0 L 0 13 L 26 26 z"></path></g></g><g  id="v-4124" display="none"><g  id="v-4109" transform="translate(1194, 1139) "><g  event="remove"><circle r="11"></circle><path transform="scale(.8) translate(-16, -16)" d="M24.778,21.419 19.276,15.917 24.777,10.415 21.949,7.585 16.447,13.087 10.945,7.585 8.117,10.415 13.618,15.917 8.116,21.419 10.946,24.248 16.447,18.746 21.948,24.248z"></path><title>Remove link.</title></g><g  event="link:options"><circle r="11" transform="translate(25)"></circle><path fill="white" transform="scale(.55) translate(29, -16)" d="M31.229,17.736c0.064-0.571,0.104-1.148,0.104-1.736s-0.04-1.166-0.104-1.737l-4.377-1.557c-0.218-0.716-0.504-1.401-0.851-2.05l1.993-4.192c-0.725-0.91-1.549-1.734-2.458-2.459l-4.193,1.994c-0.647-0.347-1.334-0.632-2.049-0.849l-1.558-4.378C17.165,0.708,16.588,0.667,16,0.667s-1.166,0.041-1.737,0.105L12.707,5.15c-0.716,0.217-1.401,0.502-2.05,0.849L6.464,4.005C5.554,4.73,4.73,5.554,4.005,6.464l1.994,4.192c-0.347,0.648-0.632,1.334-0.849,2.05l-4.378,1.557C0.708,14.834,0.667,15.412,0.667,16s0.041,1.165,0.105,1.736l4.378,1.558c0.217,0.715,0.502,1.401,0.849,2.049l-1.994,4.193c0.725,0.909,1.549,1.733,2.459,2.458l4.192-1.993c0.648,0.347,1.334,0.633,2.05,0.851l1.557,4.377c0.571,0.064,1.148,0.104,1.737,0.104c0.588,0,1.165-0.04,1.736-0.104l1.558-4.377c0.715-0.218,1.399-0.504,2.049-0.851l4.193,1.993c0.909-0.725,1.733-1.549,2.458-2.458l-1.993-4.193c0.347-0.647,0.633-1.334,0.851-2.049L31.229,17.736zM16,20.871c-2.69,0-4.872-2.182-4.872-4.871c0-2.69,2.182-4.872,4.872-4.872c2.689,0,4.871,2.182,4.871,4.872C20.871,18.689,18.689,20.871,16,20.871z"></path><title>Link options.</title></g></g></g></g><g   id="j_358" ><path  stroke="#aaaaaa" d="M 1319 1099 L 1563 1391 C 1567 1396.3333333333333 1570.3333333333333 1402 1573 1408 L 1869 1999" id="v-4142" stroke-width="2" stroke-dasharray="30 30" fill="none" style="opacity: 1;"></path><path  fill="black" stroke="black" d="M 0 0 0 0" transform="matrix(0.6401844186703123,0.7682212637591818,-0.7682212637591818,0.6401844186703123,1319,1099)"></path><path  fill="#aaaaaa" stroke="#aaaaaa" d="M 20 0 L 0 10 L 20 20 z" id="v-4144" transform="matrix(-0.4472135493031436,-0.8944272140983216,0.8944272140983216,-0.4472135493031436,1860.0556953832981,2003.472193766827)" style="opacity: 1;"></path><path  d="M 1319 1099 L 1563 1391 C 1567 1396.3333333333333 1570.3333333333333 1402 1573 1408 L 1869 1999" id="v-4143" fill="none" style="cursor: auto; pointer-events: visiblepainted;"></path><g ><g id="v-4133"  label-idx="0" cursor="move" transform="matrix(1,0,0,1,1631.3717041015625,1524.546142578125)" style="cursor: default; opacity: 1;"><rect joint-selector="rect" id="v-4137" fill="#111111" rx="3" ry="3" pointer-events="none" width="141.3565216064453" height="32.52301025390625" transform="matrix(1,0,0,1,-70.7,-16.3)"></rect><text joint-selector="text" id="v-4136" font-size="24px" xml:space="preserve" y="0.8em" fill="#aaaaaa" text-anchor="middle" pointer-events="none" font-family="Open Sans" font-weight="normal" transform="matrix(1,0,0,1,0,-10.2)"><tspan dy="0" >search users</tspan></text></g><g id="v-4134"  label-idx="1" cursor="move" transform="matrix(1,0,0,1,1631.3717041015625,1551.546142578125)" style="cursor: default; opacity: 1;"><rect joint-selector="rect" id="v-4139" fill="#111111" rx="3" ry="3" pointer-events="none" width="85.73992156982422" height="23.48884105682373" transform="matrix(1,0,0,1,-42.9,-11.8)"></rect><text joint-selector="text" id="v-4138" font-size="17px" xml:space="preserve" y="0.8em" fill="#aaaaaa" text-anchor="middle" pointer-events="none" font-family="Open Sans" font-weight="normal" transform="matrix(1,0,0,1,0,-7.3)"><tspan dy="0" >[https:443]</tspan></text></g><g id="v-4135"  label-idx="2" cursor="move" transform="matrix(1,0,0,1,1621.3717041015625,1560.796142578125)" style="cursor: default; opacity: 1;"><rect joint-selector="rect" id="v-4141" fill="#ffffff" rx="3" ry="3"  width="0" height="0" transform="matrix(1,0,0,1,0,0)" display="none"></rect><text joint-selector="text" id="v-4140" fill="#000000" font-size="14" text-anchor="middle" pointer-events="none"></text></g></g><g  display="none" style="display: none;"><g  transform="translate(1569, 1399)" id="v-4130"><circle  idx="0" r="10"></circle><path  idx="0" d="M16,5.333c-7.732,0-14,4.701-14,10.5c0,1.982,0.741,3.833,2.016,5.414L2,25.667l5.613-1.441c2.339,1.317,5.237,2.107,8.387,2.107c7.732,0,14-4.701,14-10.5C30,10.034,23.732,5.333,16,5.333z" transform="translate(5, -33)"></path><path  idx="0" transform="scale(.8) translate(9.5, -37)" d="M24.778,21.419 19.276,15.917 24.777,10.415 21.949,7.585 16.447,13.087 10.945,7.585 8.117,10.415 13.618,15.917 8.116,21.419 10.946,24.248 16.447,18.746 21.948,24.248z"><title>Remove vertex.</title></path></g></g><g  id="v-4146" display="none"><g  id="v-4131"><path  end="source" d="M 26 0 L 0 13 L 26 26 z"></path></g><g  id="v-4132"><path  end="target" d="M 26 0 L 0 13 L 26 26 z"></path></g></g><g  id="v-4145" display="none"><g  id="v-4129" transform="translate(1344.6487105639087, 1129.694358543694) "><g  event="remove"><circle r="11"></circle><path transform="scale(.8) translate(-16, -16)" d="M24.778,21.419 19.276,15.917 24.777,10.415 21.949,7.585 16.447,13.087 10.945,7.585 8.117,10.415 13.618,15.917 8.116,21.419 10.946,24.248 16.447,18.746 21.948,24.248z"></path><title>Remove link.</title></g><g  event="link:options"><circle r="11" transform="translate(25)"></circle><path fill="white" transform="scale(.55) translate(29, -16)" d="M31.229,17.736c0.064-0.571,0.104-1.148,0.104-1.736s-0.04-1.166-0.104-1.737l-4.377-1.557c-0.218-0.716-0.504-1.401-0.851-2.05l1.993-4.192c-0.725-0.91-1.549-1.734-2.458-2.459l-4.193,1.994c-0.647-0.347-1.334-0.632-2.049-0.849l-1.558-4.378C17.165,0.708,16.588,0.667,16,0.667s-1.166,0.041-1.737,0.105L12.707,5.15c-0.716,0.217-1.401,0.502-2.05,0.849L6.464,4.005C5.554,4.73,4.73,5.554,4.005,6.464l1.994,4.192c-0.347,0.648-0.632,1.334-0.849,2.05l-4.378,1.557C0.708,14.834,0.667,15.412,0.667,16s0.041,1.165,0.105,1.736l4.378,1.558c0.217,0.715,0.502,1.401,0.849,2.049l-1.994,4.193c0.725,0.909,1.549,1.733,2.459,2.458l4.192-1.993c0.648,0.347,1.334,0.633,2.05,0.851l1.557,4.377c0.571,0.064,1.148,0.104,1.737,0.104c0.588,0,1.165-0.04,1.736-0.104l1.558-4.377c0.715-0.218,1.399-0.504,2.049-0.851l4.193,1.993c0.909-0.725,1.733-1.549,2.458-2.458l-1.993-4.193c0.347-0.647,0.633-1.334,0.851-2.049L31.229,17.736zM16,20.871c-2.69,0-4.872-2.182-4.872-4.871c0-2.69,2.182-4.872,4.872-4.872c2.689,0,4.871,2.182,4.871,4.872C20.871,18.689,18.689,20.871,16,20.871z"></path><title>Link options.</title></g></g></g></g><g   id="j_359" ><path  stroke="#aaaaaa" d="M 1194 1699 L 1194 1999" id="v-4162" stroke-width="2" stroke-dasharray="30 30" fill="none" style="opacity: 1;"></path><path  fill="black" stroke="black" d="M 0 0 0 0" transform="matrix(6.123233995736766e-17,1,-1,6.123233995736766e-17,1194,1699)"></path><path  fill="#aaaaaa" stroke="#aaaaaa" d="M 20 0 L 0 10 L 20 20 z" id="v-4164" transform="matrix(-1.8369701987210297e-16,-1,1,-1.8369701987210297e-16,1184,1999)" style="opacity: 1;"></path><path  d="M 1194 1699 L 1194 1999" id="v-4163" fill="none" style="cursor: auto; pointer-events: visiblepainted;"></path><g ><g id="v-4153"  label-idx="0" cursor="move" transform="matrix(1,0,0,1,1194,1849)" style="cursor: default; opacity: 1;"><rect joint-selector="rect" id="v-4157" fill="#111111" rx="3" ry="3" pointer-events="none" width="169.5036163330078" height="32.52301025390625" transform="matrix(1,0,0,1,-84.8,-16.3)"></rect><text joint-selector="text" id="v-4156" font-size="24px" xml:space="preserve" y="0.8em" fill="#aaaaaa" text-anchor="middle" pointer-events="none" font-family="Open Sans" font-weight="normal" transform="matrix(1,0,0,1,0,-10.2)"><tspan dy="0" >store user data</tspan></text></g><g id="v-4154"  label-idx="1" cursor="move" transform="matrix(1,0,0,1,1194,1876)" style="cursor: default; opacity: 1;"><rect joint-selector="rect" id="v-4159" fill="#111111" rx="3" ry="3" pointer-events="none" width="73.31793212890625" height="23.48884105682373" transform="matrix(1,0,0,1,-36.7,-11.8)"></rect><text joint-selector="text" id="v-4158" font-size="17px" xml:space="preserve" y="0.8em" fill="#aaaaaa" text-anchor="middle" pointer-events="none" font-family="Open Sans" font-weight="normal" transform="matrix(1,0,0,1,0,-7.3)"><tspan dy="0" >[SQL\tcp]</tspan></text></g><g id="v-4155"  label-idx="2" cursor="move" transform="matrix(1,0,0,1,1184,1885.25)" style="cursor: default; opacity: 1;"><rect joint-selector="rect" id="v-4161" fill="#ffffff" rx="3" ry="3"  width="0" height="0" transform="matrix(1,0,0,1,0,0)" display="none"></rect><text joint-selector="text" id="v-4160" fill="#000000" font-size="14" text-anchor="middle" pointer-events="none"></text></g></g><g  display="none" style="display: none;"></g><g  id="v-4166" display="none"><g  id="v-4151"><path  end="source" d="M 26 0 L 0 13 L 26 26 z"></path></g><g  id="v-4152"><path  end="target" d="M 26 0 L 0 13 L 26 26 z"></path></g></g><g  id="v-4165" display="none"><g  id="v-4150" transform="translate(1194, 1739) "><g  event="remove"><circle r="11"></circle><path transform="scale(.8) translate(-16, -16)" d="M24.778,21.419 19.276,15.917 24.777,10.415 21.949,7.585 16.447,13.087 10.945,7.585 8.117,10.415 13.618,15.917 8.116,21.419 10.946,24.248 16.447,18.746 21.948,24.248z"></path><title>Remove link.</title></g><g  event="link:options"><circle r="11" transform="translate(25)"></circle><path fill="white" transform="scale(.55) translate(29, -16)" d="M31.229,17.736c0.064-0.571,0.104-1.148,0.104-1.736s-0.04-1.166-0.104-1.737l-4.377-1.557c-0.218-0.716-0.504-1.401-0.851-2.05l1.993-4.192c-0.725-0.91-1.549-1.734-2.458-2.459l-4.193,1.994c-0.647-0.347-1.334-0.632-2.049-0.849l-1.558-4.378C17.165,0.708,16.588,0.667,16,0.667s-1.166,0.041-1.737,0.105L12.707,5.15c-0.716,0.217-1.401,0.502-2.05,0.849L6.464,4.005C5.554,4.73,4.73,5.554,4.005,6.464l1.994,4.192c-0.347,0.648-0.632,1.334-0.849,2.05l-4.378,1.557C0.708,14.834,0.667,15.412,0.667,16s0.041,1.165,0.105,1.736l4.378,1.558c0.217,0.715,0.502,1.401,0.849,2.049l-1.994,4.193c0.725,0.909,1.549,1.733,2.459,2.458l4.192-1.993c0.648,0.347,1.334,0.633,2.05,0.851l1.557,4.377c0.571,0.064,1.148,0.104,1.737,0.104c0.588,0,1.165-0.04,1.736-0.104l1.558-4.377c0.715-0.218,1.399-0.504,2.049-0.851l4.193,1.993c0.909-0.725,1.733-1.549,2.458-2.458l-1.993-4.193c0.347-0.647,0.633-1.334,0.851-2.049L31.229,17.736zM16,20.871c-2.69,0-4.872-2.182-4.872-4.871c0-2.69,2.182-4.872,4.872-4.872c2.689,0,4.871,2.182,4.871,4.872C20.871,18.689,18.689,20.871,16,20.871z"></path><title>Link options.</title></g></g></g></g><g   id="j_360" ><path  stroke="#aaaaaa" d="M 1382 1699 L 1757 1999" id="v-4182" stroke-width="2" stroke-dasharray="30 30" fill="none" style="opacity: 1;"></path><path  fill="black" stroke="black" d="M 0 0 0 0" transform="matrix(0.7808688000832672,0.624695059254128,-0.624695059254128,0.7808688000832672,1381.5,1699)"></path><path  fill="#aaaaaa" stroke="#aaaaaa" d="M 20 0 L 0 10 L 20 20 z" id="v-4184" transform="matrix(-0.7808688416748548,-0.6246950072646416,0.6246950072646416,-0.7808688416748548,1750.2530225237897,2006.8086902472076)" style="opacity: 1;"></path><path  d="M 1382 1699 L 1757 1999" id="v-4183" fill="none" style="cursor: auto; pointer-events: visiblepainted;"></path><g ><g id="v-4173"  label-idx="0" cursor="move" transform="matrix(1,0,0,1,1569.5,1849)" style="cursor: default; opacity: 1;"><rect joint-selector="rect" id="v-4177" fill="#111111" rx="3" ry="3" pointer-events="none" width="190.70567321777344" height="90.12301635742188" transform="matrix(1,0,0,1,-95.4,-45.1)"></rect><text joint-selector="text" id="v-4176" font-size="24px" xml:space="preserve" y="0.8em" fill="#aaaaaa" text-anchor="middle" pointer-events="none" font-family="Open Sans" font-weight="normal" transform="matrix(1,0,0,1,0,-39)"><tspan dy="0" >add or remove</tspan><tspan dy="1.2em" x="0" >user from search</tspan><tspan dy="1.2em" x="0" >index</tspan></text></g><g id="v-4174"  label-idx="1" cursor="move" transform="matrix(1,0,0,1,1569.5,1906)" style="cursor: default; opacity: 1;"><rect joint-selector="rect" id="v-4179" fill="#111111" rx="3" ry="3" pointer-events="none" width="135.31492614746094" height="23.48884105682373" transform="matrix(1,0,0,1,-67.7,-11.8)"></rect><text joint-selector="text" id="v-4178" font-size="17px" xml:space="preserve" y="0.8em" fill="#aaaaaa" text-anchor="middle" pointer-events="none" font-family="Open Sans" font-weight="normal" transform="matrix(1,0,0,1,0,-7.3)"><tspan dy="0" >[http:80, grpc:80]</tspan></text></g><g id="v-4175"  label-idx="2" cursor="move" transform="matrix(1,0,0,1,1559.5,1915.25)" style="cursor: default; opacity: 1;"><rect joint-selector="rect" id="v-4181" fill="#ffffff" rx="3" ry="3"  width="0" height="0" transform="matrix(1,0,0,1,0,0)" display="none"></rect><text joint-selector="text" id="v-4180" fill="#000000" font-size="14" text-anchor="middle" pointer-events="none"></text></g></g><g  display="none" style="display: none;"></g><g  id="v-4186" display="none"><g  id="v-4171"><path  end="source" d="M 26 0 L 0 13 L 26 26 z"></path></g><g  id="v-4172"><path  end="target" d="M 26 0 L 0 13 L 26 26 z"></path></g></g><g  id="v-4185" display="none"><g  id="v-4170" transform="translate(1413.2347523777212, 1723.9878019021771) "><g  event="remove"><circle r="11"></circle><path transform="scale(.8) translate(-16, -16)" d="M24.778,21.419 19.276,15.917 24.777,10.415 21.949,7.585 16.447,13.087 10.945,7.585 8.117,10.415 13.618,15.917 8.116,21.419 10.946,24.248 16.447,18.746 21.948,24.248z"></path><title>Remove link.</title></g><g  event="link:options"><circle r="11" transform="translate(25)"></circle><path fill="white" transform="scale(.55) translate(29, -16)" d="M31.229,17.736c0.064-0.571,0.104-1.148,0.104-1.736s-0.04-1.166-0.104-1.737l-4.377-1.557c-0.218-0.716-0.504-1.401-0.851-2.05l1.993-4.192c-0.725-0.91-1.549-1.734-2.458-2.459l-4.193,1.994c-0.647-0.347-1.334-0.632-2.049-0.849l-1.558-4.378C17.165,0.708,16.588,0.667,16,0.667s-1.166,0.041-1.737,0.105L12.707,5.15c-0.716,0.217-1.401,0.502-2.05,0.849L6.464,4.005C5.554,4.73,4.73,5.554,4.005,6.464l1.994,4.192c-0.347,0.648-0.632,1.334-0.849,2.05l-4.378,1.557C0.708,14.834,0.667,15.412,0.667,16s0.041,1.165,0.105,1.736l4.378,1.558c0.217,0.715,0.502,1.401,0.849,2.049l-1.994,4.193c0.725,0.909,1.549,1.733,2.459,2.458l4.192-1.993c0.648,0.347,1.334,0.633,2.05,0.851l1.557,4.377c0.571,0.064,1.148,0.104,1.737,0.104c0.588,0,1.165-0.04,1.736-0.104l1.558-4.377c0.715-0.218,1.399-0.504,2.049-0.851l4.193,1.993c0.909-0.725,1.733-1.549,2.458-2.458l-1.993-4.193c0.347-0.647,0.633-1.334,0.851-2.049L31.229,17.736zM16,20.871c-2.69,0-4.872-2.182-4.872-4.871c0-2.69,2.182-4.872,4.872-4.872c2.689,0,4.871,2.182,4.871,4.872C20.871,18.689,18.689,20.871,16,20.871z"></path><title>Link options.</title></g></g></g></g><g   id="j_361" ><path  stroke="#aaaaaa" d="M 1007 1699 L 632 1999" id="v-4202" stroke-width="2" stroke-dasharray="30 30" fill="none" style="opacity: 1;"></path><path  fill="black" stroke="black" d="M 0 0 0 0" transform="matrix(-0.7808688416748546,0.6246950072646418,-0.6246950072646418,-0.7808688416748546,1006.5,1699)"></path><path  fill="#aaaaaa" stroke="#aaaaaa" d="M 20 0 L 0 10 L 20 20 z" id="v-4204" transform="matrix(0.7808686753084834,-0.6246952152225711,0.6246952152225711,0.7808686753084834,625.253076915002,1991.1913171569533)" style="opacity: 1;"></path><path  d="M 1007 1699 L 632 1999" id="v-4203" fill="none" style="cursor: auto; pointer-events: visiblepainted;"></path><g ><g id="v-4193"  label-idx="0" cursor="move" transform="matrix(1,0,0,1,819.5,1849)" style="cursor: default; opacity: 1;"><rect joint-selector="rect" id="v-4197" fill="#111111" rx="3" ry="3" pointer-events="none" width="193.2465362548828" height="32.52301025390625" transform="matrix(1,0,0,1,-96.6,-16.3)"></rect><text joint-selector="text" id="v-4196" font-size="24px" xml:space="preserve" y="0.8em" fill="#aaaaaa" text-anchor="middle" pointer-events="none" font-family="Open Sans" font-weight="normal" transform="matrix(1,0,0,1,0,-10.2)"><tspan dy="0" >post notifications</tspan></text></g><g id="v-4194"  label-idx="1" cursor="move" transform="matrix(1,0,0,1,819.5,1876)" style="cursor: default; opacity: 1;"><rect joint-selector="rect" id="v-4199" fill="#111111" rx="3" ry="3" pointer-events="none" width="135.31492614746094" height="23.48884105682373" transform="matrix(1,0,0,1,-67.7,-11.8)"></rect><text joint-selector="text" id="v-4198" font-size="17px" xml:space="preserve" y="0.8em" fill="#aaaaaa" text-anchor="middle" pointer-events="none" font-family="Open Sans" font-weight="normal" transform="matrix(1,0,0,1,0,-7.3)"><tspan dy="0" >[http:80, grpc:80]</tspan></text></g><g id="v-4195"  label-idx="2" cursor="move" transform="matrix(1,0,0,1,809.5,1885.25)" style="cursor: default; opacity: 1;"><rect joint-selector="rect" id="v-4201" fill="#ffffff" rx="3" ry="3"  width="0" height="0" transform="matrix(1,0,0,1,0,0)" display="none"></rect><text joint-selector="text" id="v-4200" fill="#000000" font-size="14" text-anchor="middle" pointer-events="none"></text></g></g><g  display="none" style="display: none;"></g><g  id="v-4206" display="none"><g  id="v-4191"><path  end="source" d="M 26 0 L 0 13 L 26 26 z"></path></g><g  id="v-4192"><path  end="target" d="M 26 0 L 0 13 L 26 26 z"></path></g></g><g  id="v-4205" display="none"><g  id="v-4190" transform="translate(975.7652476222788, 1723.9878019021771) "><g  event="remove"><circle r="11"></circle><path transform="scale(.8) translate(-16, -16)" d="M24.778,21.419 19.276,15.917 24.777,10.415 21.949,7.585 16.447,13.087 10.945,7.585 8.117,10.415 13.618,15.917 8.116,21.419 10.946,24.248 16.447,18.746 21.948,24.248z"></path><title>Remove link.</title></g><g  event="link:options"><circle r="11" transform="translate(25)"></circle><path fill="white" transform="scale(.55) translate(29, -16)" d="M31.229,17.736c0.064-0.571,0.104-1.148,0.104-1.736s-0.04-1.166-0.104-1.737l-4.377-1.557c-0.218-0.716-0.504-1.401-0.851-2.05l1.993-4.192c-0.725-0.91-1.549-1.734-2.458-2.459l-4.193,1.994c-0.647-0.347-1.334-0.632-2.049-0.849l-1.558-4.378C17.165,0.708,16.588,0.667,16,0.667s-1.166,0.041-1.737,0.105L12.707,5.15c-0.716,0.217-1.401,0.502-2.05,0.849L6.464,4.005C5.554,4.73,4.73,5.554,4.005,6.464l1.994,4.192c-0.347,0.648-0.632,1.334-0.849,2.05l-4.378,1.557C0.708,14.834,0.667,15.412,0.667,16s0.041,1.165,0.105,1.736l4.378,1.558c0.217,0.715,0.502,1.401,0.849,2.049l-1.994,4.193c0.725,0.909,1.549,1.733,2.459,2.458l4.192-1.993c0.648,0.347,1.334,0.633,2.05,0.851l1.557,4.377c0.571,0.064,1.148,0.104,1.737,0.104c0.588,0,1.165-0.04,1.736-0.104l1.558-4.377c0.715-0.218,1.399-0.504,2.049-0.851l4.193,1.993c0.909-0.725,1.733-1.549,2.458-2.458l-1.993-4.193c0.347-0.647,0.633-1.334,0.851-2.049L31.229,17.736zM16,20.871c-2.69,0-4.872-2.182-4.872-4.871c0-2.69,2.182-4.872,4.872-4.872c2.689,0,4.871,2.182,4.871,4.872C20.871,18.689,18.689,20.871,16,20.871z"></path><title>Link options.</title></g></g></g></g><g   id="j_362" ><path  stroke="#aaaaaa" d="M 1928 599 L 1937 799" id="v-4222" stroke-width="2" stroke-dasharray="30 30" fill="none" style="opacity: 1;"></path><path  fill="black" stroke="black" d="M 0 0 0 0" transform="matrix(0.04540313382364607,0.9989687459770661,-0.9989687459770661,0.04540313382364607,1928.0899658203125,599)"></path><path  fill="#aaaaaa" stroke="#aaaaaa" d="M 20 0 L 0 10 L 20 20 z" id="v-4224" transform="matrix(-0.04540300080291055,-0.9989687520228503,0.9989687520228503,-0.04540300080291055,1927.1902946362381,799.4540324696638)" style="opacity: 1;"></path><path  d="M 1928 599 L 1937 799" id="v-4223" fill="none" style="cursor: auto; pointer-events: visiblepainted;"></path><g ><g id="v-4213"  label-idx="0" cursor="move" transform="matrix(1,0,0,1,1932.5,699)" style="cursor: default; opacity: 1;"><rect joint-selector="rect" id="v-4217" fill="#111111" rx="3" ry="3" pointer-events="none" width="177.06973266601562" height="61.323015213012695" transform="matrix(1,0,0,1,-88.5,-30.7)"></rect><text joint-selector="text" id="v-4216" font-size="24px" xml:space="preserve" y="0.8em" fill="#aaaaaa" text-anchor="middle" pointer-events="none" font-family="Open Sans" font-weight="normal" transform="matrix(1,0,0,1,0,-24.6)"><tspan dy="0" >moderate users</tspan><tspan dy="1.2em" x="0" >posts</tspan></text></g><g id="v-4214"  label-idx="1" cursor="move" transform="matrix(1,0,0,1,1932.5,741)" style="cursor: default; opacity: 1;"><rect joint-selector="rect" id="v-4219" fill="#111111" rx="3" ry="3" pointer-events="none" width="85.73992156982422" height="23.48884105682373" transform="matrix(1,0,0,1,-42.9,-11.8)"></rect><text joint-selector="text" id="v-4218" font-size="17px" xml:space="preserve" y="0.8em" fill="#aaaaaa" text-anchor="middle" pointer-events="none" font-family="Open Sans" font-weight="normal" transform="matrix(1,0,0,1,0,-7.3)"><tspan dy="0" >[https:443]</tspan></text></g><g id="v-4215"  label-idx="2" cursor="move" transform="matrix(1,0,0,1,1922.5,750.25)" style="cursor: default; opacity: 1;"><rect joint-selector="rect" id="v-4221" fill="#ffffff" rx="3" ry="3"  width="0" height="0" transform="matrix(1,0,0,1,0,0)" display="none"></rect><text joint-selector="text" id="v-4220" fill="#000000" font-size="14" text-anchor="middle" pointer-events="none"></text></g></g><g  display="none" style="display: none;"></g><g  id="v-4226" display="none"><g  id="v-4211"><path  end="source" d="M 26 0 L 0 13 L 26 26 z"></path></g><g  id="v-4212"><path  end="target" d="M 26 0 L 0 13 L 26 26 z"></path></g></g><g  id="v-4225" display="none"><g  id="v-4210" transform="translate(1929.7981802632592, 638.9595614057614) "><g  event="remove"><circle r="11"></circle><path transform="scale(.8) translate(-16, -16)" d="M24.778,21.419 19.276,15.917 24.777,10.415 21.949,7.585 16.447,13.087 10.945,7.585 8.117,10.415 13.618,15.917 8.116,21.419 10.946,24.248 16.447,18.746 21.948,24.248z"></path><title>Remove link.</title></g><g  event="link:options"><circle r="11" transform="translate(25)"></circle><path fill="white" transform="scale(.55) translate(29, -16)" d="M31.229,17.736c0.064-0.571,0.104-1.148,0.104-1.736s-0.04-1.166-0.104-1.737l-4.377-1.557c-0.218-0.716-0.504-1.401-0.851-2.05l1.993-4.192c-0.725-0.91-1.549-1.734-2.458-2.459l-4.193,1.994c-0.647-0.347-1.334-0.632-2.049-0.849l-1.558-4.378C17.165,0.708,16.588,0.667,16,0.667s-1.166,0.041-1.737,0.105L12.707,5.15c-0.716,0.217-1.401,0.502-2.05,0.849L6.464,4.005C5.554,4.73,4.73,5.554,4.005,6.464l1.994,4.192c-0.347,0.648-0.632,1.334-0.849,2.05l-4.378,1.557C0.708,14.834,0.667,15.412,0.667,16s0.041,1.165,0.105,1.736l4.378,1.558c0.217,0.715,0.502,1.401,0.849,2.049l-1.994,4.193c0.725,0.909,1.549,1.733,2.459,2.458l4.192-1.993c0.648,0.347,1.334,0.633,2.05,0.851l1.557,4.377c0.571,0.064,1.148,0.104,1.737,0.104c0.588,0,1.165-0.04,1.736-0.104l1.558-4.377c0.715-0.218,1.399-0.504,2.049-0.851l4.193,1.993c0.909-0.725,1.733-1.549,2.458-2.458l-1.993-4.193c0.347-0.647,0.633-1.334,0.851-2.049L31.229,17.736zM16,20.871c-2.69,0-4.872-2.182-4.872-4.871c0-2.69,2.182-4.872,4.872-4.872c2.689,0,4.871,2.182,4.871,4.872C20.871,18.689,18.689,20.871,16,20.871z"></path><title>Link options.</title></g></g></g></g><g   id="j_363" ><path  stroke="#aaaaaa" d="M 1757 1099 L 1382 1399" id="v-4242" stroke-width="2" stroke-dasharray="30 30" fill="none" style="opacity: 1;"></path><path  fill="black" stroke="black" d="M 0 0 0 0" transform="matrix(-0.7808688416748546,0.6246950072646418,-0.6246950072646418,-0.7808688416748546,1756.5,1099)"></path><path  fill="#aaaaaa" stroke="#aaaaaa" d="M 20 0 L 0 10 L 20 20 z" id="v-4244" transform="matrix(0.7808686753084834,-0.6246952152225711,0.6246952152225711,0.7808686753084834,1375.2530769150019,1391.1913171569533)" style="opacity: 1;"></path><path  d="M 1757 1099 L 1382 1399" id="v-4243" fill="none" style="cursor: auto; pointer-events: visiblepainted;"></path><g ><g id="v-4233"  label-idx="0" cursor="move" transform="matrix(1,0,0,1,1569.5,1249)" style="cursor: default; opacity: 1;"><rect joint-selector="rect" id="v-4237" fill="#111111" rx="3" ry="3" pointer-events="none" width="177.06973266601562" height="61.323015213012695" transform="matrix(1,0,0,1,-88.5,-30.7)"></rect><text joint-selector="text" id="v-4236" font-size="24px" xml:space="preserve" y="0.8em" fill="#aaaaaa" text-anchor="middle" pointer-events="none" font-family="Open Sans" font-weight="normal" transform="matrix(1,0,0,1,0,-24.6)"><tspan dy="0" >moderate users</tspan><tspan dy="1.2em" x="0" >posts and data</tspan></text></g><g id="v-4234"  label-idx="1" cursor="move" transform="matrix(1,0,0,1,1569.5,1291)" style="cursor: default; opacity: 1;"><rect joint-selector="rect" id="v-4239" fill="#111111" rx="3" ry="3" pointer-events="none" width="135.31492614746094" height="23.48884105682373" transform="matrix(1,0,0,1,-67.7,-11.8)"></rect><text joint-selector="text" id="v-4238" font-size="17px" xml:space="preserve" y="0.8em" fill="#aaaaaa" text-anchor="middle" pointer-events="none" font-family="Open Sans" font-weight="normal" transform="matrix(1,0,0,1,0,-7.3)"><tspan dy="0" >[http:80, grpc:80]</tspan></text></g><g id="v-4235"  label-idx="2" cursor="move" transform="matrix(1,0,0,1,1559.5,1300.25)" style="cursor: default; opacity: 1;"><rect joint-selector="rect" id="v-4241" fill="#ffffff" rx="3" ry="3"  width="0" height="0" transform="matrix(1,0,0,1,0,0)" display="none"></rect><text joint-selector="text" id="v-4240" fill="#000000" font-size="14" text-anchor="middle" pointer-events="none"></text></g></g><g  display="none" style="display: none;"></g><g  id="v-4246" display="none"><g  id="v-4231"><path  end="source" d="M 26 0 L 0 13 L 26 26 z"></path></g><g  id="v-4232"><path  end="target" d="M 26 0 L 0 13 L 26 26 z"></path></g></g><g  id="v-4245" display="none"><g  id="v-4230" transform="translate(1725.7652476222788, 1123.987801902177) "><g  event="remove"><circle r="11"></circle><path transform="scale(.8) translate(-16, -16)" d="M24.778,21.419 19.276,15.917 24.777,10.415 21.949,7.585 16.447,13.087 10.945,7.585 8.117,10.415 13.618,15.917 8.116,21.419 10.946,24.248 16.447,18.746 21.948,24.248z"></path><title>Remove link.</title></g><g  event="link:options"><circle r="11" transform="translate(25)"></circle><path fill="white" transform="scale(.55) translate(29, -16)" d="M31.229,17.736c0.064-0.571,0.104-1.148,0.104-1.736s-0.04-1.166-0.104-1.737l-4.377-1.557c-0.218-0.716-0.504-1.401-0.851-2.05l1.993-4.192c-0.725-0.91-1.549-1.734-2.458-2.459l-4.193,1.994c-0.647-0.347-1.334-0.632-2.049-0.849l-1.558-4.378C17.165,0.708,16.588,0.667,16,0.667s-1.166,0.041-1.737,0.105L12.707,5.15c-0.716,0.217-1.401,0.502-2.05,0.849L6.464,4.005C5.554,4.73,4.73,5.554,4.005,6.464l1.994,4.192c-0.347,0.648-0.632,1.334-0.849,2.05l-4.378,1.557C0.708,14.834,0.667,15.412,0.667,16s0.041,1.165,0.105,1.736l4.378,1.558c0.217,0.715,0.502,1.401,0.849,2.049l-1.994,4.193c0.725,0.909,1.549,1.733,2.459,2.458l4.192-1.993c0.648,0.347,1.334,0.633,2.05,0.851l1.557,4.377c0.571,0.064,1.148,0.104,1.737,0.104c0.588,0,1.165-0.04,1.736-0.104l1.558-4.377c0.715-0.218,1.399-0.504,2.049-0.851l4.193,1.993c0.909-0.725,1.733-1.549,2.458-2.458l-1.993-4.193c0.347-0.647,0.633-1.334,0.851-2.049L31.229,17.736zM16,20.871c-2.69,0-4.872-2.182-4.872-4.871c0-2.69,2.182-4.872,4.872-4.872c2.689,0,4.871,2.182,4.871,4.872C20.871,18.689,18.689,20.871,16,20.871z"></path><title>Link options.</title></g></g></g></g><g   id="j_364" ><path  stroke="#aaaaaa" d="M 1944 1099 L 1944 1999" id="v-4262" stroke-width="2" stroke-dasharray="30 30" fill="none" style="opacity: 1;"></path><path  fill="black" stroke="black" d="M 0 0 0 0" transform="matrix(6.123233995736766e-17,1,-1,6.123233995736766e-17,1944,1099)"></path><path  fill="#aaaaaa" stroke="#aaaaaa" d="M 20 0 L 0 10 L 20 20 z" id="v-4264" transform="matrix(-1.8369701987210297e-16,-1,1,-1.8369701987210297e-16,1934,1999)" style="opacity: 1;"></path><path  d="M 1944 1099 L 1944 1999" id="v-4263" fill="none" style="cursor: auto; pointer-events: visiblepainted;"></path><g ><g id="v-4253"  label-idx="0" cursor="move" transform="matrix(1,0,0,1,1944,1549)" style="cursor: default; opacity: 1;"><rect joint-selector="rect" id="v-4257" fill="#111111" rx="3" ry="3" pointer-events="none" width="163.3773193359375" height="61.323015213012695" transform="matrix(1,0,0,1,-81.7,-30.7)"></rect><text joint-selector="text" id="v-4256" font-size="24px" xml:space="preserve" y="0.8em" fill="#aaaaaa" text-anchor="middle" pointer-events="none" font-family="Open Sans" font-weight="normal" transform="matrix(1,0,0,1,0,-24.6)"><tspan dy="0" >excluder users</tspan><tspan dy="1.2em" x="0" >from search</tspan></text></g><g id="v-4254"  label-idx="1" cursor="move" transform="matrix(1,0,0,1,1944,1591)" style="cursor: default; opacity: 1;"><rect joint-selector="rect" id="v-4259" fill="#111111" rx="3" ry="3" pointer-events="none" width="135.31492614746094" height="23.48884105682373" transform="matrix(1,0,0,1,-67.7,-11.8)"></rect><text joint-selector="text" id="v-4258" font-size="17px" xml:space="preserve" y="0.8em" fill="#aaaaaa" text-anchor="middle" pointer-events="none" font-family="Open Sans" font-weight="normal" transform="matrix(1,0,0,1,0,-7.3)"><tspan dy="0" >[http:80, grpc:80]</tspan></text></g><g id="v-4255"  label-idx="2" cursor="move" transform="matrix(1,0,0,1,1934,1600.25)" style="cursor: default; opacity: 1;"><rect joint-selector="rect" id="v-4261" fill="#ffffff" rx="3" ry="3"  width="0" height="0" transform="matrix(1,0,0,1,0,0)" display="none"></rect><text joint-selector="text" id="v-4260" fill="#000000" font-size="14" text-anchor="middle" pointer-events="none"></text></g></g><g  display="none" style="display: none;"></g><g  id="v-4266" display="none"><g  id="v-4251"><path  end="source" d="M 26 0 L 0 13 L 26 26 z"></path></g><g  id="v-4252"><path  end="target" d="M 26 0 L 0 13 L 26 26 z"></path></g></g><g  id="v-4265" display="none"><g  id="v-4250" transform="translate(1944.0000000000002, 1139) "><g  event="remove"><circle r="11"></circle><path transform="scale(.8) translate(-16, -16)" d="M24.778,21.419 19.276,15.917 24.777,10.415 21.949,7.585 16.447,13.087 10.945,7.585 8.117,10.415 13.618,15.917 8.116,21.419 10.946,24.248 16.447,18.746 21.948,24.248z"></path><title>Remove link.</title></g><g  event="link:options"><circle r="11" transform="translate(25)"></circle><path fill="white" transform="scale(.55) translate(29, -16)" d="M31.229,17.736c0.064-0.571,0.104-1.148,0.104-1.736s-0.04-1.166-0.104-1.737l-4.377-1.557c-0.218-0.716-0.504-1.401-0.851-2.05l1.993-4.192c-0.725-0.91-1.549-1.734-2.458-2.459l-4.193,1.994c-0.647-0.347-1.334-0.632-2.049-0.849l-1.558-4.378C17.165,0.708,16.588,0.667,16,0.667s-1.166,0.041-1.737,0.105L12.707,5.15c-0.716,0.217-1.401,0.502-2.05,0.849L6.464,4.005C5.554,4.73,4.73,5.554,4.005,6.464l1.994,4.192c-0.347,0.648-0.632,1.334-0.849,2.05l-4.378,1.557C0.708,14.834,0.667,15.412,0.667,16s0.041,1.165,0.105,1.736l4.378,1.558c0.217,0.715,0.502,1.401,0.849,2.049l-1.994,4.193c0.725,0.909,1.549,1.733,2.459,2.458l4.192-1.993c0.648,0.347,1.334,0.633,2.05,0.851l1.557,4.377c0.571,0.064,1.148,0.104,1.737,0.104c0.588,0,1.165-0.04,1.736-0.104l1.558-4.377c0.715-0.218,1.399-0.504,2.049-0.851l4.193,1.993c0.909-0.725,1.733-1.549,2.458-2.458l-1.993-4.193c0.347-0.647,0.633-1.334,0.851-2.049L31.229,17.736zM16,20.871c-2.69,0-4.872-2.182-4.872-4.871c0-2.69,2.182-4.872,4.872-4.872c2.689,0,4.871,2.182,4.871,4.872C20.871,18.689,18.689,20.871,16,20.871z"></path><title>Link options.</title></g></g></g></g></g><g ></g><g ></g><g ></g></g></svg>