<svg xmlns="http://www.w3.org/2000/svg" xmlns:xlink="http://www.w3.org/1999/xlink" version="1.1" viewBox="0 0 3120 1095" style="background: #111111"><defs><style>@import url(https://fonts.googleapis.com/css?family=Open+Sans:400,700);</style></defs><defs joint-selector="defs"></defs><g joint-selector="layers"  transform="matrix(1,0,0,1,0,0)"><g ></g><g ><g   id="j_378"  transform="translate(20,1057.5)"><g id="v-4420"><text  id="v-4421" font-size="22px" xml:space="preserve" y="0.8em" font-weight="normal" text-anchor="start" fill="#777777" pointer-events="none" display="block" font-family="Open Sans"><tspan dy="0" >воскресенье, 10 марта 2024 г. в 14:58 Москва, стандартное время</tspan></text></g></g><g   id="j_377"  transform="translate(20,1012.5)"><g id="v-4418"><text  id="v-4419" font-size="36px" xml:space="preserve" y="0.8em" font-weight="normal" text-anchor="start" fill="#bbbbbb" pointer-events="none" display="block" font-family="Open Sans"><tspan dy="0" >[Component] X-Tagram - SearchEngine</tspan></text></g></g><g   id="j_379"  transform="translate(950,200)" style=""><g  id="v-4425" style="opacity: 1;"><rect  id="v-4426" rx="20" ry="20" stroke="#3c7fc0" stroke-width="2" pointer-events="visiblePainted" fill="#438dd5" width="450" height="300" style="fill: rgb(67, 141, 213); stroke: rgb(60, 127, 192);"></rect><text  id="v-4427" font-size="34" xml:space="preserve" y="0.8em" font-weight="bold" text-anchor="middle" pointer-events="visible" font-family="Open Sans" fill="#ffffff" transform="matrix(1,0,0,1,225,98.1)" style="fill: rgb(255, 255, 255);"><tspan dy="0" >ApiApplication</tspan></text><text  id="v-4428" font-size="17" xml:space="preserve" y="0.8em" text-anchor="middle" font-family="Open Sans" fill="#ffffff" transform="matrix(1,0,0,1,225,140.6)" style="fill: rgb(255, 255, 255);"><tspan dy="0" >[Container: python, FastAPI]</tspan></text><text  id="v-4429" font-size="24" xml:space="preserve" y="0.8em" text-anchor="middle" font-family="Open Sans" fill="#ffffff" transform="matrix(1,0,0,1,225,171.9)" style="fill: rgb(255, 255, 255);"><tspan dy="0" >Provides functionality via API.</tspan></text><g  id="v-4430" color="#ffffff" transform="matrix(1,0,0,1,222.5,211.9)" display="none" style="fill: rgb(255, 255, 255);"><g ></g><g ></g><g ></g><g ></g></g><image  id="v-4431"></image></g></g><g   id="j_381"  transform="translate(1680,484)" style=""><g id="v-4439"><rect  id="v-4440" width="1240" height="411" rx="0" ry="0" fill="#111111" stroke="#3c7fc0" stroke-width="1" stroke-dasharray="20,20" pointer-events="none"></rect><text  id="v-4441" font-size="24px" xml:space="preserve" y="372" font-weight="normal" fill="#3c7fc0" text-anchor="start" pointer-events="visible" font-family="Open Sans" transform="matrix(1,0,0,1,15,0)"><tspan dy="0" >SearchEngine</tspan></text><text  id="v-4442" font-size="17px" xml:space="preserve" y="396" font-weight="normal" fill="#3c7fc0" text-anchor="start" pointer-events="visible" font-family="Open Sans" transform="matrix(1,0,0,1,15,0)"><tspan dy="0" >[Container]</tspan></text><image  id="v-4443" pointer-events="visible"></image></g></g><g   id="j_380"  transform="translate(1700,504)" style=""><g  id="v-4432" style="opacity: 1;"><rect  id="v-4433" rx="20" ry="20" stroke="#78a8d8" stroke-width="2" pointer-events="visiblePainted" fill="#85bbf0" width="450" height="300" style="fill: rgb(133, 187, 240); stroke: rgb(120, 168, 216);"></rect><text  id="v-4434" font-size="34" xml:space="preserve" y="0.8em" font-weight="bold" text-anchor="middle" pointer-events="visible" font-family="Open Sans" fill="#000000" transform="matrix(1,0,0,1,225,113.1)" style="fill: rgb(0, 0, 0);"><tspan dy="0" >SearchEngineApi</tspan></text><text  id="v-4435" font-size="17" xml:space="preserve" y="0.8em" text-anchor="middle" font-family="Open Sans" fill="#000000" transform="matrix(1,0,0,1,225,155.6)" style="fill: rgb(0, 0, 0);"><tspan dy="0" >[Component: python, FastApi]</tspan></text><text  id="v-4436" font-size="24" xml:space="preserve" display="none" y="0.8em" text-anchor="middle" font-family="Open Sans" fill="#000000" transform="matrix(1,0,0,1,225,186.9)" style="fill: rgb(0, 0, 0);"><tspan dy="0" style="fill-opacity: 0; stroke-opacity: 0;" >-</tspan></text><g  id="v-4437" color="#000000" transform="matrix(1,0,0,1,222.5,196.9)" display="none" style="fill: rgb(0, 0, 0);"><g ></g><g ></g><g ></g><g ></g></g><image  id="v-4438"></image></g></g><g   id="j_382"  transform="translate(2450,504)" style=""><g  id="v-4444" style="opacity: 1;"><rect  id="v-4445" rx="20" ry="20" stroke="#78a8d8" stroke-width="2" pointer-events="visiblePainted" fill="#85bbf0" width="450" height="300" style="fill: rgb(133, 187, 240); stroke: rgb(120, 168, 216);"></rect><text  id="v-4446" font-size="34" xml:space="preserve" y="0.8em" font-weight="bold" text-anchor="middle" pointer-events="visible" font-family="Open Sans" fill="#000000" transform="matrix(1,0,0,1,225,113.1)" style="fill: rgb(0, 0, 0);"><tspan dy="0" >ElasticSearch</tspan></text><text  id="v-4447" font-size="17" xml:space="preserve" y="0.8em" text-anchor="middle" font-family="Open Sans" fill="#000000" transform="matrix(1,0,0,1,225,155.6)" style="fill: rgb(0, 0, 0);"><tspan dy="0" >[Component]</tspan></text><text  id="v-4448" font-size="24" xml:space="preserve" display="none" y="0.8em" text-anchor="middle" font-family="Open Sans" fill="#000000" transform="matrix(1,0,0,1,225,186.9)" style="fill: rgb(0, 0, 0);"><tspan dy="0" style="fill-opacity: 0; stroke-opacity: 0;" >-</tspan></text><g  id="v-4449" color="#000000" transform="matrix(1,0,0,1,222.5,196.9)" display="none" style="fill: rgb(0, 0, 0);"><g ></g><g ></g><g ></g><g ></g></g><image  id="v-4450"></image></g></g><g   id="j_383"  transform="translate(200,504)" style=""><g  id="v-4451" style="opacity: 1;"><rect  id="v-4452" rx="20" ry="20" stroke="#3c7fc0" stroke-width="2" pointer-events="visiblePainted" fill="#438dd5" width="450" height="300" style="fill: rgb(67, 141, 213); stroke: rgb(60, 127, 192);"></rect><text  id="v-4453" font-size="34" xml:space="preserve" y="0.8em" font-weight="bold" text-anchor="middle" pointer-events="visible" font-family="Open Sans" fill="#ffffff" transform="matrix(1,0,0,1,225,98.1)" style="fill: rgb(255, 255, 255);"><tspan dy="0" >Adminka</tspan></text><text  id="v-4454" font-size="17" xml:space="preserve" y="0.8em" text-anchor="middle" font-family="Open Sans" fill="#ffffff" transform="matrix(1,0,0,1,225,140.6)" style="fill: rgb(255, 255, 255);"><tspan dy="0" >[Container: python, django]</tspan></text><text  id="v-4455" font-size="24" xml:space="preserve" y="0.8em" text-anchor="middle" font-family="Open Sans" fill="#ffffff" transform="matrix(1,0,0,1,225,171.9)" style="fill: rgb(255, 255, 255);"><tspan dy="0" >Administration panel</tspan></text><g  id="v-4456" color="#ffffff" transform="matrix(1,0,0,1,222.5,211.9)" display="none" style="fill: rgb(255, 255, 255);"><g ></g><g ></g><g ></g><g ></g></g><image  id="v-4457"></image></g></g><g   id="j_384" ><path  stroke="#aaaaaa" d="M 2150 654 L 2450 654" id="v-4473" stroke-width="2" stroke-dasharray="30 30" fill="none" style="opacity: 1;"></path><path  fill="black" stroke="black" d="M 0 0 0 0" transform="matrix(1,0,0,1,2150,654)"></path><path  fill="#aaaaaa" stroke="#aaaaaa" d="M 20 0 L 0 10 L 20 20 z" id="v-4475" transform="matrix(-1,1.2246467991473532e-16,-1.2246467991473532e-16,-1,2450,664)" style="opacity: 1;"></path><path  d="M 2150 654 L 2450 654" id="v-4474" fill="none" style="cursor: auto; pointer-events: visiblepainted;"></path><g ><g id="v-4464"  label-idx="0" cursor="move" transform="matrix(1,0,0,1,2300,654)" style="cursor: default; opacity: 1;"><rect joint-selector="rect" id="v-4468" fill="#111111" rx="3" ry="3" pointer-events="none" width="135.80357360839844" height="62.22857666015625" transform="matrix(1,0,0,1,-67.9,-31.1)"></rect><text joint-selector="text" id="v-4467" font-size="24px" xml:space="preserve" y="0.8em" fill="#aaaaaa" text-anchor="middle" pointer-events="none" font-family="Open Sans" font-weight="normal" transform="matrix(1,0,0,1,0,-24.3)"><tspan dy="0" >manupulate</tspan><tspan dy="1.2em" x="0" >index</tspan></text></g><g id="v-4465"  label-idx="1" cursor="move" transform="matrix(1,0,0,1,2300,696)" style="cursor: default; opacity: 1;"><rect joint-selector="rect" id="v-4470" fill="#111111" rx="3" ry="3" pointer-events="none" width="79.08333587646484" height="23.523812294006348" transform="matrix(1,0,0,1,-39.5,-11.8)"></rect><text joint-selector="text" id="v-4469" font-size="17px" xml:space="preserve" y="0.8em" fill="#aaaaaa" text-anchor="middle" pointer-events="none" font-family="Open Sans" font-weight="normal" transform="matrix(1,0,0,1,0,-6.8)"><tspan dy="0" >[tcp:9200]</tspan></text></g><g id="v-4466"  label-idx="2" cursor="move" transform="matrix(1,0,0,1,2290,705.25)" style="cursor: default; opacity: 1;"><rect joint-selector="rect" id="v-4472" fill="#ffffff" rx="3" ry="3"  width="0" height="0" transform="matrix(1,0,0,1,0,0)" display="none"></rect><text joint-selector="text" id="v-4471" fill="#000000" font-size="14" text-anchor="middle" pointer-events="none"></text></g></g><g  display="none" style="display: none;"></g><g  id="v-4477" display="none"><g  id="v-4462"><path  end="source" d="M 26 0 L 0 13 L 26 26 z"></path></g><g  id="v-4463"><path  end="target" d="M 26 0 L 0 13 L 26 26 z"></path></g></g><g  id="v-4476" display="none"><g  id="v-4461" transform="translate(2190, 654.0000000000001) "><g  event="remove"><circle r="11"></circle><path transform="scale(.8) translate(-16, -16)" d="M24.778,21.419 19.276,15.917 24.777,10.415 21.949,7.585 16.447,13.087 10.945,7.585 8.117,10.415 13.618,15.917 8.116,21.419 10.946,24.248 16.447,18.746 21.948,24.248z"></path><title>Remove link.</title></g><g  event="link:options"><circle r="11" transform="translate(25)"></circle><path fill="white" transform="scale(.55) translate(29, -16)" d="M31.229,17.736c0.064-0.571,0.104-1.148,0.104-1.736s-0.04-1.166-0.104-1.737l-4.377-1.557c-0.218-0.716-0.504-1.401-0.851-2.05l1.993-4.192c-0.725-0.91-1.549-1.734-2.458-2.459l-4.193,1.994c-0.647-0.347-1.334-0.632-2.049-0.849l-1.558-4.378C17.165,0.708,16.588,0.667,16,0.667s-1.166,0.041-1.737,0.105L12.707,5.15c-0.716,0.217-1.401,0.502-2.05,0.849L6.464,4.005C5.554,4.73,4.73,5.554,4.005,6.464l1.994,4.192c-0.347,0.648-0.632,1.334-0.849,2.05l-4.378,1.557C0.708,14.834,0.667,15.412,0.667,16s0.041,1.165,0.105,1.736l4.378,1.558c0.217,0.715,0.502,1.401,0.849,2.049l-1.994,4.193c0.725,0.909,1.549,1.733,2.459,2.458l4.192-1.993c0.648,0.347,1.334,0.633,2.05,0.851l1.557,4.377c0.571,0.064,1.148,0.104,1.737,0.104c0.588,0,1.165-0.04,1.736-0.104l1.558-4.377c0.715-0.218,1.399-0.504,2.049-0.851l4.193,1.993c0.909-0.725,1.733-1.549,2.458-2.458l-1.993-4.193c0.347-0.647,0.633-1.334,0.851-2.049L31.229,17.736zM16,20.871c-2.69,0-4.872-2.182-4.872-4.871c0-2.69,2.182-4.872,4.872-4.872c2.689,0,4.871,2.182,4.871,4.872C20.871,18.689,18.689,20.871,16,20.871z"></path><title>Link options.</title></g></g></g></g><g   id="j_385" ><path  stroke="#aaaaaa" d="M 1400 441 L 1700 563" id="v-4493" stroke-width="2" stroke-dasharray="30 30" fill="none" style="opacity: 1;"></path><path  fill="black" stroke="black" d="M 0 0 0 0" transform="matrix(0.9267625286137344,0.3756477280078732,-0.3756477280078732,0.9267625286137344,1400,441.20001220703125)"></path><path  fill="#aaaaaa" stroke="#aaaaaa" d="M 20 0 L 0 10 L 20 20 z" id="v-4495" transform="matrix(-0.9267625661291202,-0.37564763545345,0.37564763545345,-0.9267625661291202,1696.2435711817568,572.067620082232)" style="opacity: 1;"></path><path  d="M 1400 441 L 1700 563" id="v-4494" fill="none" style="cursor: auto; pointer-events: visiblepainted;"></path><g ><g id="v-4484"  label-idx="0" cursor="move" transform="matrix(1,0,0,1,1550,502)" style="cursor: default; opacity: 1;"><rect joint-selector="rect" id="v-4488" fill="#111111" rx="3" ry="3" pointer-events="none" width="190.68601989746094" height="91.0285758972168" transform="matrix(1,0,0,1,-95.3,-45.5)"></rect><text joint-selector="text" id="v-4487" font-size="24px" xml:space="preserve" y="0.8em" fill="#aaaaaa" text-anchor="middle" pointer-events="none" font-family="Open Sans" font-weight="normal" transform="matrix(1,0,0,1,0,-38.7)"><tspan dy="0" >add or remove</tspan><tspan dy="1.2em" x="0" >user from search</tspan><tspan dy="1.2em" x="0" >index</tspan></text></g><g id="v-4485"  label-idx="1" cursor="move" transform="matrix(1,0,0,1,1550,559)" style="cursor: default; opacity: 1;"><rect joint-selector="rect" id="v-4490" fill="#111111" rx="3" ry="3" pointer-events="none" width="135.4166717529297" height="23.523812294006348" transform="matrix(1,0,0,1,-67.7,-11.8)"></rect><text joint-selector="text" id="v-4489" font-size="17px" xml:space="preserve" y="0.8em" fill="#aaaaaa" text-anchor="middle" pointer-events="none" font-family="Open Sans" font-weight="normal" transform="matrix(1,0,0,1,0,-6.8)"><tspan dy="0" >[http:80, grpc:80]</tspan></text></g><g id="v-4486"  label-idx="2" cursor="move" transform="matrix(1,0,0,1,1540,568.25)" style="cursor: default; opacity: 1;"><rect joint-selector="rect" id="v-4492" fill="#ffffff" rx="3" ry="3"  width="0" height="0" transform="matrix(1,0,0,1,0,0)" display="none"></rect><text joint-selector="text" id="v-4491" fill="#000000" font-size="14" text-anchor="middle" pointer-events="none"></text></g></g><g  display="none" style="display: none;"></g><g  id="v-4497" display="none"><g  id="v-4482"><path  end="source" d="M 26 0 L 0 13 L 26 26 z"></path></g><g  id="v-4483"><path  end="target" d="M 26 0 L 0 13 L 26 26 z"></path></g></g><g  id="v-4496" display="none"><g  id="v-4481" transform="translate(1437.053277171495, 456.06833271640795) "><g  event="remove"><circle r="11"></circle><path transform="scale(.8) translate(-16, -16)" d="M24.778,21.419 19.276,15.917 24.777,10.415 21.949,7.585 16.447,13.087 10.945,7.585 8.117,10.415 13.618,15.917 8.116,21.419 10.946,24.248 16.447,18.746 21.948,24.248z"></path><title>Remove link.</title></g><g  event="link:options"><circle r="11" transform="translate(25)"></circle><path fill="white" transform="scale(.55) translate(29, -16)" d="M31.229,17.736c0.064-0.571,0.104-1.148,0.104-1.736s-0.04-1.166-0.104-1.737l-4.377-1.557c-0.218-0.716-0.504-1.401-0.851-2.05l1.993-4.192c-0.725-0.91-1.549-1.734-2.458-2.459l-4.193,1.994c-0.647-0.347-1.334-0.632-2.049-0.849l-1.558-4.378C17.165,0.708,16.588,0.667,16,0.667s-1.166,0.041-1.737,0.105L12.707,5.15c-0.716,0.217-1.401,0.502-2.05,0.849L6.464,4.005C5.554,4.73,4.73,5.554,4.005,6.464l1.994,4.192c-0.347,0.648-0.632,1.334-0.849,2.05l-4.378,1.557C0.708,14.834,0.667,15.412,0.667,16s0.041,1.165,0.105,1.736l4.378,1.558c0.217,0.715,0.502,1.401,0.849,2.049l-1.994,4.193c0.725,0.909,1.549,1.733,2.459,2.458l4.192-1.993c0.648,0.347,1.334,0.633,2.05,0.851l1.557,4.377c0.571,0.064,1.148,0.104,1.737,0.104c0.588,0,1.165-0.04,1.736-0.104l1.558-4.377c0.715-0.218,1.399-0.504,2.049-0.851l4.193,1.993c0.909-0.725,1.733-1.549,2.458-2.458l-1.993-4.193c0.347-0.647,0.633-1.334,0.851-2.049L31.229,17.736zM16,20.871c-2.69,0-4.872-2.182-4.872-4.871c0-2.69,2.182-4.872,4.872-4.872c2.689,0,4.871,2.182,4.871,4.872C20.871,18.689,18.689,20.871,16,20.871z"></path><title>Link options.</title></g></g></g></g><g   id="j_386" ><path  stroke="#aaaaaa" d="M 650 563 L 950 441" id="v-4513" stroke-width="2" stroke-dasharray="30 30" fill="none" style="opacity: 1;"></path><path  fill="black" stroke="black" d="M 0 0 0 0" transform="matrix(0.9267624660880707,-0.3756478822652373,0.3756478822652373,0.9267624660880707,650,562.7999877929688)"></path><path  fill="#aaaaaa" stroke="#aaaaaa" d="M 20 0 L 0 10 L 20 20 z" id="v-4515" transform="matrix(-0.9267625661291203,0.37564763545344976,-0.37564763545344976,-0.9267625661291203,953.7564628556695,450.46763124035044)" style="opacity: 1;"></path><path  d="M 650 563 L 950 441" id="v-4514" fill="none" style="cursor: auto; pointer-events: visiblepainted;"></path><g ><g id="v-4504"  label-idx="0" cursor="move" transform="matrix(1,0,0,1,800,502)" style="cursor: default; opacity: 1;"><rect joint-selector="rect" id="v-4508" fill="#111111" rx="3" ry="3" pointer-events="none" width="177.0669708251953" height="62.22857666015625" transform="matrix(1,0,0,1,-88.5,-31.1)"></rect><text joint-selector="text" id="v-4507" font-size="24px" xml:space="preserve" y="0.8em" fill="#aaaaaa" text-anchor="middle" pointer-events="none" font-family="Open Sans" font-weight="normal" transform="matrix(1,0,0,1,0,-24.3)"><tspan dy="0" >moderate users</tspan><tspan dy="1.2em" x="0" >posts and data</tspan></text></g><g id="v-4505"  label-idx="1" cursor="move" transform="matrix(1,0,0,1,800,544)" style="cursor: default; opacity: 1;"><rect joint-selector="rect" id="v-4510" fill="#111111" rx="3" ry="3" pointer-events="none" width="135.4166717529297" height="23.523812294006348" transform="matrix(1,0,0,1,-67.7,-11.8)"></rect><text joint-selector="text" id="v-4509" font-size="17px" xml:space="preserve" y="0.8em" fill="#aaaaaa" text-anchor="middle" pointer-events="none" font-family="Open Sans" font-weight="normal" transform="matrix(1,0,0,1,0,-6.8)"><tspan dy="0" >[http:80, grpc:80]</tspan></text></g><g id="v-4506"  label-idx="2" cursor="move" transform="matrix(1,0,0,1,790,553.25)" style="cursor: default; opacity: 1;"><rect joint-selector="rect" id="v-4512" fill="#ffffff" rx="3" ry="3"  width="0" height="0" transform="matrix(1,0,0,1,0,0)" display="none"></rect><text joint-selector="text" id="v-4511" fill="#000000" font-size="14" text-anchor="middle" pointer-events="none"></text></g></g><g  display="none" style="display: none;"></g><g  id="v-4517" display="none"><g  id="v-4502"><path  end="source" d="M 26 0 L 0 13 L 26 26 z"></path></g><g  id="v-4503"><path  end="target" d="M 26 0 L 0 13 L 26 26 z"></path></g></g><g  id="v-4516" display="none"><g  id="v-4501" transform="translate(687.053277171495, 547.931667283592) "><g  event="remove"><circle r="11"></circle><path transform="scale(.8) translate(-16, -16)" d="M24.778,21.419 19.276,15.917 24.777,10.415 21.949,7.585 16.447,13.087 10.945,7.585 8.117,10.415 13.618,15.917 8.116,21.419 10.946,24.248 16.447,18.746 21.948,24.248z"></path><title>Remove link.</title></g><g  event="link:options"><circle r="11" transform="translate(25)"></circle><path fill="white" transform="scale(.55) translate(29, -16)" d="M31.229,17.736c0.064-0.571,0.104-1.148,0.104-1.736s-0.04-1.166-0.104-1.737l-4.377-1.557c-0.218-0.716-0.504-1.401-0.851-2.05l1.993-4.192c-0.725-0.91-1.549-1.734-2.458-2.459l-4.193,1.994c-0.647-0.347-1.334-0.632-2.049-0.849l-1.558-4.378C17.165,0.708,16.588,0.667,16,0.667s-1.166,0.041-1.737,0.105L12.707,5.15c-0.716,0.217-1.401,0.502-2.05,0.849L6.464,4.005C5.554,4.73,4.73,5.554,4.005,6.464l1.994,4.192c-0.347,0.648-0.632,1.334-0.849,2.05l-4.378,1.557C0.708,14.834,0.667,15.412,0.667,16s0.041,1.165,0.105,1.736l4.378,1.558c0.217,0.715,0.502,1.401,0.849,2.049l-1.994,4.193c0.725,0.909,1.549,1.733,2.459,2.458l4.192-1.993c0.648,0.347,1.334,0.633,2.05,0.851l1.557,4.377c0.571,0.064,1.148,0.104,1.737,0.104c0.588,0,1.165-0.04,1.736-0.104l1.558-4.377c0.715-0.218,1.399-0.504,2.049-0.851l4.193,1.993c0.909-0.725,1.733-1.549,2.458-2.458l-1.993-4.193c0.347-0.647,0.633-1.334,0.851-2.049L31.229,17.736zM16,20.871c-2.69,0-4.872-2.182-4.872-4.871c0-2.69,2.182-4.872,4.872-4.872c2.689,0,4.871,2.182,4.871,4.872C20.871,18.689,18.689,20.871,16,20.871z"></path><title>Link options.</title></g></g></g></g><g   id="j_387" ><path  stroke="#aaaaaa" d="M 650 654 L 1700 654" id="v-4533" stroke-width="2" stroke-dasharray="30 30" fill="none" style="opacity: 1;"></path><path  fill="black" stroke="black" d="M 0 0 0 0" transform="matrix(1,0,0,1,650,654)"></path><path  fill="#aaaaaa" stroke="#aaaaaa" d="M 20 0 L 0 10 L 20 20 z" id="v-4535" transform="matrix(-1,1.2246467991473532e-16,-1.2246467991473532e-16,-1,1700,664)" style="opacity: 1;"></path><path  d="M 650 654 L 1700 654" id="v-4534" fill="none" style="cursor: auto; pointer-events: visiblepainted;"></path><g ><g id="v-4524"  label-idx="0" cursor="move" transform="matrix(1,0,0,1,1175,654)" style="cursor: default; opacity: 1;"><rect joint-selector="rect" id="v-4528" fill="#111111" rx="3" ry="3" pointer-events="none" width="163.37054443359375" height="62.22857666015625" transform="matrix(1,0,0,1,-81.7,-31.1)"></rect><text joint-selector="text" id="v-4527" font-size="24px" xml:space="preserve" y="0.8em" fill="#aaaaaa" text-anchor="middle" pointer-events="none" font-family="Open Sans" font-weight="normal" transform="matrix(1,0,0,1,0,-24.3)"><tspan dy="0" >excluder users</tspan><tspan dy="1.2em" x="0" >from search</tspan></text></g><g id="v-4525"  label-idx="1" cursor="move" transform="matrix(1,0,0,1,1175,696)" style="cursor: default; opacity: 1;"><rect joint-selector="rect" id="v-4530" fill="#111111" rx="3" ry="3" pointer-events="none" width="135.4166717529297" height="23.523812294006348" transform="matrix(1,0,0,1,-67.7,-11.8)"></rect><text joint-selector="text" id="v-4529" font-size="17px" xml:space="preserve" y="0.8em" fill="#aaaaaa" text-anchor="middle" pointer-events="none" font-family="Open Sans" font-weight="normal" transform="matrix(1,0,0,1,0,-6.8)"><tspan dy="0" >[http:80, grpc:80]</tspan></text></g><g id="v-4526"  label-idx="2" cursor="move" transform="matrix(1,0,0,1,1165,705.25)" style="cursor: default; opacity: 1;"><rect joint-selector="rect" id="v-4532" fill="#ffffff" rx="3" ry="3"  width="0" height="0" transform="matrix(1,0,0,1,0,0)" display="none"></rect><text joint-selector="text" id="v-4531" fill="#000000" font-size="14" text-anchor="middle" pointer-events="none"></text></g></g><g  display="none" style="display: none;"></g><g  id="v-4537" display="none"><g  id="v-4522"><path  end="source" d="M 26 0 L 0 13 L 26 26 z"></path></g><g  id="v-4523"><path  end="target" d="M 26 0 L 0 13 L 26 26 z"></path></g></g><g  id="v-4536" display="none"><g  id="v-4521" transform="translate(690.0000000000001, 654) "><g  event="remove"><circle r="11"></circle><path transform="scale(.8) translate(-16, -16)" d="M24.778,21.419 19.276,15.917 24.777,10.415 21.949,7.585 16.447,13.087 10.945,7.585 8.117,10.415 13.618,15.917 8.116,21.419 10.946,24.248 16.447,18.746 21.948,24.248z"></path><title>Remove link.</title></g><g  event="link:options"><circle r="11" transform="translate(25)"></circle><path fill="white" transform="scale(.55) translate(29, -16)" d="M31.229,17.736c0.064-0.571,0.104-1.148,0.104-1.736s-0.04-1.166-0.104-1.737l-4.377-1.557c-0.218-0.716-0.504-1.401-0.851-2.05l1.993-4.192c-0.725-0.91-1.549-1.734-2.458-2.459l-4.193,1.994c-0.647-0.347-1.334-0.632-2.049-0.849l-1.558-4.378C17.165,0.708,16.588,0.667,16,0.667s-1.166,0.041-1.737,0.105L12.707,5.15c-0.716,0.217-1.401,0.502-2.05,0.849L6.464,4.005C5.554,4.73,4.73,5.554,4.005,6.464l1.994,4.192c-0.347,0.648-0.632,1.334-0.849,2.05l-4.378,1.557C0.708,14.834,0.667,15.412,0.667,16s0.041,1.165,0.105,1.736l4.378,1.558c0.217,0.715,0.502,1.401,0.849,2.049l-1.994,4.193c0.725,0.909,1.549,1.733,2.459,2.458l4.192-1.993c0.648,0.347,1.334,0.633,2.05,0.851l1.557,4.377c0.571,0.064,1.148,0.104,1.737,0.104c0.588,0,1.165-0.04,1.736-0.104l1.558-4.377c0.715-0.218,1.399-0.504,2.049-0.851l4.193,1.993c0.909-0.725,1.733-1.549,2.458-2.458l-1.993-4.193c0.347-0.647,0.633-1.334,0.851-2.049L31.229,17.736zM16,20.871c-2.69,0-4.872-2.182-4.872-4.871c0-2.69,2.182-4.872,4.872-4.872c2.689,0,4.871,2.182,4.871,4.872C20.871,18.689,18.689,20.871,16,20.871z"></path><title>Link options.</title></g></g></g></g></g><g ></g><g ></g><g ></g></g></svg>