<svg xmlns="http://www.w3.org/2000/svg" xmlns:xlink="http://www.w3.org/1999/xlink" version="1.1" viewBox="0 0 2370 1411" style="background: #111111"><defs><style>@import url(https://fonts.googleapis.com/css?family=Open+Sans:400,700);</style></defs><defs joint-selector="defs"></defs><g joint-selector="layers"  transform="matrix(1,0,0,1,0,0)"><g ></g><g ><g   id="j_366"  transform="translate(20,1373.5)"><g id="v-4269"><text  id="v-4270" font-size="22px" xml:space="preserve" y="0.8em" font-weight="normal" text-anchor="start" fill="#777777" pointer-events="none" display="block" font-family="Open Sans"><tspan dy="0" >воскресенье, 10 марта 2024 г. в 14:58 Москва, стандартное время</tspan></text></g></g><g   id="j_365"  transform="translate(20,1328.5)"><g id="v-4267"><text  id="v-4268" font-size="36px" xml:space="preserve" y="0.8em" font-weight="normal" text-anchor="start" fill="#bbbbbb" pointer-events="none" display="block" font-family="Open Sans"><tspan dy="0" >[Component] X-Tagram - RealtimeEventProvider</tspan></text></g></g><g   id="j_367"  transform="translate(200,520)" style=""><g  id="v-4277" style="opacity: 1;"><rect  id="v-4278" rx="20" ry="20" stroke="#3c7fc0" stroke-width="2" pointer-events="visiblePainted" fill="#438dd5" width="450" height="300" style="fill: rgb(67, 141, 213); stroke: rgb(60, 127, 192);"></rect><text  id="v-4279" font-size="34" xml:space="preserve" y="0.8em" font-weight="bold" text-anchor="middle" pointer-events="visible" font-family="Open Sans" fill="#ffffff" transform="matrix(1,0,0,1,225,83.1)" style="fill: rgb(255, 255, 255);"><tspan dy="0" >NativeApplication</tspan></text><text  id="v-4280" font-size="17" xml:space="preserve" y="0.8em" text-anchor="middle" font-family="Open Sans" fill="#ffffff" transform="matrix(1,0,0,1,225,125.6)" style="fill: rgb(255, 255, 255);"><tspan dy="0" >[Container]</tspan></text><text  id="v-4281" font-size="24" xml:space="preserve" y="0.8em" text-anchor="middle" font-family="Open Sans" fill="#ffffff" transform="matrix(1,0,0,1,225,156.9)" style="fill: rgb(255, 255, 255);"><tspan dy="0" >Application for user to</tspan><tspan dy="1.2em" x="0" >communicate with sistem</tspan></text><g  id="v-4282" color="#ffffff" transform="matrix(1,0,0,1,222.5,226.9)" display="none" style="fill: rgb(255, 255, 255);"><g ></g><g ></g><g ></g><g ></g></g><image  id="v-4283"></image></g></g><g   id="j_368"  transform="translate(950,520)" style=""><g  id="v-4287" style="opacity: 1;"><rect  id="v-4288" rx="20" ry="20" stroke="#3c7fc0" stroke-width="2" pointer-events="visiblePainted" fill="#438dd5" width="450" height="300" style="fill: rgb(67, 141, 213); stroke: rgb(60, 127, 192);"></rect><text  id="v-4289" font-size="34" xml:space="preserve" y="0.8em" font-weight="bold" text-anchor="middle" pointer-events="visible" font-family="Open Sans" fill="#ffffff" transform="matrix(1,0,0,1,225,98.1)" style="fill: rgb(255, 255, 255);"><tspan dy="0" >ApiApplication</tspan></text><text  id="v-4290" font-size="17" xml:space="preserve" y="0.8em" text-anchor="middle" font-family="Open Sans" fill="#ffffff" transform="matrix(1,0,0,1,225,140.6)" style="fill: rgb(255, 255, 255);"><tspan dy="0" >[Container: python, FastAPI]</tspan></text><text  id="v-4291" font-size="24" xml:space="preserve" y="0.8em" text-anchor="middle" font-family="Open Sans" fill="#ffffff" transform="matrix(1,0,0,1,225,171.9)" style="fill: rgb(255, 255, 255);"><tspan dy="0" >Provides functionality via API.</tspan></text><g  id="v-4292" color="#ffffff" transform="matrix(1,0,0,1,222.5,211.9)" display="none" style="fill: rgb(255, 255, 255);"><g ></g><g ></g><g ></g><g ></g></g><image  id="v-4293"></image></g></g><g   id="j_370"  transform="translate(1680,200)" style=""><g id="v-4301"><rect  id="v-4302" width="490" height="1011" rx="0" ry="0" fill="#111111" stroke="#3c7fc0" stroke-width="1" stroke-dasharray="20,20" pointer-events="none"></rect><text  id="v-4303" font-size="24px" xml:space="preserve" y="972" font-weight="normal" fill="#3c7fc0" text-anchor="start" pointer-events="visible" font-family="Open Sans" transform="matrix(1,0,0,1,15,0)"><tspan dy="0" >RealtimeEventProvider</tspan></text><text  id="v-4304" font-size="17px" xml:space="preserve" y="996" font-weight="normal" fill="#3c7fc0" text-anchor="start" pointer-events="visible" font-family="Open Sans" transform="matrix(1,0,0,1,15,0)"><tspan dy="0" >[Container]</tspan></text><image  id="v-4305" pointer-events="visible"></image></g></g><g   id="j_369"  transform="translate(1700,220)" style=""><g  id="v-4294" style="opacity: 1;"><rect  id="v-4295" rx="20" ry="20" stroke="#78a8d8" stroke-width="2" pointer-events="visiblePainted" fill="#85bbf0" width="450" height="300" style="fill: rgb(133, 187, 240); stroke: rgb(120, 168, 216);"></rect><text  id="v-4296" font-size="34" xml:space="preserve" y="0.8em" font-weight="bold" text-anchor="middle" pointer-events="visible" font-family="Open Sans" fill="#000000" transform="matrix(1,0,0,1,225,113.1)" style="fill: rgb(0, 0, 0);"><tspan dy="0" >Notifications</tspan></text><text  id="v-4297" font-size="17" xml:space="preserve" y="0.8em" text-anchor="middle" font-family="Open Sans" fill="#000000" transform="matrix(1,0,0,1,225,155.6)" style="fill: rgb(0, 0, 0);"><tspan dy="0" >[Component]</tspan></text><text  id="v-4298" font-size="24" xml:space="preserve" display="none" y="0.8em" text-anchor="middle" font-family="Open Sans" fill="#000000" transform="matrix(1,0,0,1,225,186.9)" style="fill: rgb(0, 0, 0);"><tspan dy="0" style="fill-opacity: 0; stroke-opacity: 0;" >-</tspan></text><g  id="v-4299" color="#000000" transform="matrix(1,0,0,1,222.5,196.9)" display="none" style="fill: rgb(0, 0, 0);"><g ></g><g ></g><g ></g><g ></g></g><image  id="v-4300"></image></g></g><g   id="j_371"  transform="translate(1700,820)" style=""><g  id="v-4309" style="opacity: 1;"><rect  id="v-4310" rx="20" ry="20" stroke="#78a8d8" stroke-width="2" pointer-events="visiblePainted" fill="#85bbf0" width="450" height="300" style="fill: rgb(133, 187, 240); stroke: rgb(120, 168, 216);"></rect><text  id="v-4311" font-size="34" xml:space="preserve" y="0.8em" font-weight="bold" text-anchor="middle" pointer-events="visible" font-family="Open Sans" fill="#000000" transform="matrix(1,0,0,1,225,113.1)" style="fill: rgb(0, 0, 0);"><tspan dy="0" >Messaging component</tspan></text><text  id="v-4312" font-size="17" xml:space="preserve" y="0.8em" text-anchor="middle" font-family="Open Sans" fill="#000000" transform="matrix(1,0,0,1,225,155.6)" style="fill: rgb(0, 0, 0);"><tspan dy="0" >[Component]</tspan></text><text  id="v-4313" font-size="24" xml:space="preserve" display="none" y="0.8em" text-anchor="middle" font-family="Open Sans" fill="#000000" transform="matrix(1,0,0,1,225,186.9)" style="fill: rgb(0, 0, 0);"><tspan dy="0" style="fill-opacity: 0; stroke-opacity: 0;" >-</tspan></text><g  id="v-4314" color="#000000" transform="matrix(1,0,0,1,222.5,196.9)" display="none" style="fill: rgb(0, 0, 0);"><g ></g><g ></g><g ></g><g ></g></g><image  id="v-4315"></image></g></g><g   id="j_372" ><path  stroke="#aaaaaa" d="M 650 541 L 941 375 C 946.9999999999999 371.66666666666663 953.3333333333333 370 960 370 L 1700 370" id="v-4332" stroke-width="2" stroke-dasharray="30 30" fill="none" style="opacity: 1;"></path><path  fill="black" stroke="black" d="M 0 0 0 0" transform="matrix(0.8682413637412602,-0.496142050514484,0.496142050514484,0.8682413637412602,650,541.4299926757812)"></path><path  fill="#aaaaaa" stroke="#aaaaaa" d="M 20 0 L 0 10 L 20 20 z" id="v-4334" transform="matrix(-1,1.2246467991473532e-16,-1.2246467991473532e-16,-1,1700,380)" style="opacity: 1;"></path><path  d="M 650 541 L 941 375 C 946.9999999999999 371.66666666666663 953.3333333333333 370 960 370 L 1700 370" id="v-4333" fill="none" style="cursor: auto; pointer-events: visiblepainted;"></path><g ><g id="v-4323"  label-idx="0" cursor="move" transform="matrix(1,0,0,1,1152.5604248046875,370)" style="cursor: default; opacity: 1;"><rect joint-selector="rect" id="v-4327" fill="#111111" rx="3" ry="3" pointer-events="none" width="179.234619140625" height="32.470706939697266" transform="matrix(1,0,0,1,-89.6,-16.3)"></rect><text joint-selector="text" id="v-4326" font-size="24px" xml:space="preserve" y="0.8em" fill="#aaaaaa" text-anchor="middle" pointer-events="none" font-family="Open Sans" font-weight="normal" transform="matrix(1,0,0,1,0,-9.9)"><tspan dy="0" >get notifications</tspan></text></g><g id="v-4324"  label-idx="1" cursor="move" transform="matrix(1,0,0,1,1152.5604248046875,397)" style="cursor: default; opacity: 1;"><rect joint-selector="rect" id="v-4329" fill="#111111" rx="3" ry="3" pointer-events="none" width="74.10455322265625" height="22.631099700927734" transform="matrix(1,0,0,1,-37.1,-11.3)"></rect><text joint-selector="text" id="v-4328" font-size="17px" xml:space="preserve" y="0.8em" fill="#aaaaaa" text-anchor="middle" pointer-events="none" font-family="Open Sans" font-weight="normal" transform="matrix(1,0,0,1,0,-7.2)"><tspan dy="0" >[wss:443]</tspan></text></g><g id="v-4325"  label-idx="2" cursor="move" transform="matrix(1,0,0,1,1142.5604248046875,406.25)" style="cursor: default; opacity: 1;"><rect joint-selector="rect" id="v-4331" fill="#ffffff" rx="3" ry="3"  width="0" height="0" transform="matrix(1,0,0,1,0,0)" display="none"></rect><text joint-selector="text" id="v-4330" fill="#000000" font-size="14" text-anchor="middle" pointer-events="none"></text></g></g><g  display="none" style="display: none;"><g  transform="translate(950, 370)" id="v-4320"><circle  idx="0" r="10"></circle><path  idx="0" d="M16,5.333c-7.732,0-14,4.701-14,10.5c0,1.982,0.741,3.833,2.016,5.414L2,25.667l5.613-1.441c2.339,1.317,5.237,2.107,8.387,2.107c7.732,0,14-4.701,14-10.5C30,10.034,23.732,5.333,16,5.333z" transform="translate(5, -33)"></path><path  idx="0" transform="scale(.8) translate(9.5, -37)" d="M24.778,21.419 19.276,15.917 24.777,10.415 21.949,7.585 16.447,13.087 10.945,7.585 8.117,10.415 13.618,15.917 8.116,21.419 10.946,24.248 16.447,18.746 21.948,24.248z"><title>Remove vertex.</title></path></g></g><g  id="v-4336" display="none"><g  id="v-4321"><path  end="source" d="M 26 0 L 0 13 L 26 26 z"></path></g><g  id="v-4322"><path  end="target" d="M 26 0 L 0 13 L 26 26 z"></path></g></g><g  id="v-4335" display="none"><g  id="v-4319" transform="translate(684.7444111303688, 521.1801640974528) "><g  event="remove"><circle r="11"></circle><path transform="scale(.8) translate(-16, -16)" d="M24.778,21.419 19.276,15.917 24.777,10.415 21.949,7.585 16.447,13.087 10.945,7.585 8.117,10.415 13.618,15.917 8.116,21.419 10.946,24.248 16.447,18.746 21.948,24.248z"></path><title>Remove link.</title></g><g  event="link:options"><circle r="11" transform="translate(25)"></circle><path fill="white" transform="scale(.55) translate(29, -16)" d="M31.229,17.736c0.064-0.571,0.104-1.148,0.104-1.736s-0.04-1.166-0.104-1.737l-4.377-1.557c-0.218-0.716-0.504-1.401-0.851-2.05l1.993-4.192c-0.725-0.91-1.549-1.734-2.458-2.459l-4.193,1.994c-0.647-0.347-1.334-0.632-2.049-0.849l-1.558-4.378C17.165,0.708,16.588,0.667,16,0.667s-1.166,0.041-1.737,0.105L12.707,5.15c-0.716,0.217-1.401,0.502-2.05,0.849L6.464,4.005C5.554,4.73,4.73,5.554,4.005,6.464l1.994,4.192c-0.347,0.648-0.632,1.334-0.849,2.05l-4.378,1.557C0.708,14.834,0.667,15.412,0.667,16s0.041,1.165,0.105,1.736l4.378,1.558c0.217,0.715,0.502,1.401,0.849,2.049l-1.994,4.193c0.725,0.909,1.549,1.733,2.459,2.458l4.192-1.993c0.648,0.347,1.334,0.633,2.05,0.851l1.557,4.377c0.571,0.064,1.148,0.104,1.737,0.104c0.588,0,1.165-0.04,1.736-0.104l1.558-4.377c0.715-0.218,1.399-0.504,2.049-0.851l4.193,1.993c0.909-0.725,1.733-1.549,2.458-2.458l-1.993-4.193c0.347-0.647,0.633-1.334,0.851-2.049L31.229,17.736zM16,20.871c-2.69,0-4.872-2.182-4.872-4.871c0-2.69,2.182-4.872,4.872-4.872c2.689,0,4.871,2.182,4.871,4.872C20.871,18.689,18.689,20.871,16,20.871z"></path><title>Link options.</title></g></g></g></g><g   id="j_373" ><path  stroke="#aaaaaa" d="M 650 799 L 941 965 C 946.9999999999999 968.3333333333333 953.3333333333333 970 960 970 L 1700 970" id="v-4353" stroke-width="2" stroke-dasharray="30 30" fill="none" style="opacity: 1;"></path><path  fill="black" stroke="black" d="M 0 0 0 0" transform="matrix(0.86824136374126,0.4961420505144842,-0.4961420505144842,0.86824136374126,650,798.5700073242188)"></path><path  fill="#aaaaaa" stroke="#aaaaaa" d="M 20 0 L 0 10 L 20 20 z" id="v-4355" transform="matrix(-1,1.2246467991473532e-16,-1.2246467991473532e-16,-1,1700,980)" style="opacity: 1;"></path><path  d="M 650 799 L 941 965 C 946.9999999999999 968.3333333333333 953.3333333333333 970 960 970 L 1700 970" id="v-4354" fill="none" style="cursor: auto; pointer-events: visiblepainted;"></path><g ><g id="v-4344"  label-idx="0" cursor="move" transform="matrix(1,0,0,1,1152.5604248046875,970)" style="cursor: default; opacity: 1;"><rect joint-selector="rect" id="v-4348" fill="#111111" rx="3" ry="3" pointer-events="none" width="192.73333740234375" height="61.270708084106445" transform="matrix(1,0,0,1,-96.4,-30.7)"></rect><text joint-selector="text" id="v-4347" font-size="24px" xml:space="preserve" y="0.8em" fill="#aaaaaa" text-anchor="middle" pointer-events="none" font-family="Open Sans" font-weight="normal" transform="matrix(1,0,0,1,0,-24.3)"><tspan dy="0" >get new message</tspan><tspan dy="1.2em" x="0" >in chat</tspan></text></g><g id="v-4345"  label-idx="1" cursor="move" transform="matrix(1,0,0,1,1152.5604248046875,1012)" style="cursor: default; opacity: 1;"><rect joint-selector="rect" id="v-4350" fill="#111111" rx="3" ry="3" pointer-events="none" width="74.10455322265625" height="22.631099700927734" transform="matrix(1,0,0,1,-37.1,-11.3)"></rect><text joint-selector="text" id="v-4349" font-size="17px" xml:space="preserve" y="0.8em" fill="#aaaaaa" text-anchor="middle" pointer-events="none" font-family="Open Sans" font-weight="normal" transform="matrix(1,0,0,1,0,-7.2)"><tspan dy="0" >[wss:443]</tspan></text></g><g id="v-4346"  label-idx="2" cursor="move" transform="matrix(1,0,0,1,1142.5604248046875,1021.25)" style="cursor: default; opacity: 1;"><rect joint-selector="rect" id="v-4352" fill="#ffffff" rx="3" ry="3"  width="0" height="0" transform="matrix(1,0,0,1,0,0)" display="none"></rect><text joint-selector="text" id="v-4351" fill="#000000" font-size="14" text-anchor="middle" pointer-events="none"></text></g></g><g  display="none" style="display: none;"><g  transform="translate(950, 970)" id="v-4341"><circle  idx="0" r="10"></circle><path  idx="0" d="M16,5.333c-7.732,0-14,4.701-14,10.5c0,1.982,0.741,3.833,2.016,5.414L2,25.667l5.613-1.441c2.339,1.317,5.237,2.107,8.387,2.107c7.732,0,14-4.701,14-10.5C30,10.034,23.732,5.333,16,5.333z" transform="translate(5, -33)"></path><path  idx="0" transform="scale(.8) translate(9.5, -37)" d="M24.778,21.419 19.276,15.917 24.777,10.415 21.949,7.585 16.447,13.087 10.945,7.585 8.117,10.415 13.618,15.917 8.116,21.419 10.946,24.248 16.447,18.746 21.948,24.248z"><title>Remove vertex.</title></path></g></g><g  id="v-4357" display="none"><g  id="v-4342"><path  end="source" d="M 26 0 L 0 13 L 26 26 z"></path></g><g  id="v-4343"><path  end="target" d="M 26 0 L 0 13 L 26 26 z"></path></g></g><g  id="v-4356" display="none"><g  id="v-4340" transform="translate(684.7444111303688, 818.8198359025471) "><g  event="remove"><circle r="11"></circle><path transform="scale(.8) translate(-16, -16)" d="M24.778,21.419 19.276,15.917 24.777,10.415 21.949,7.585 16.447,13.087 10.945,7.585 8.117,10.415 13.618,15.917 8.116,21.419 10.946,24.248 16.447,18.746 21.948,24.248z"></path><title>Remove link.</title></g><g  event="link:options"><circle r="11" transform="translate(25)"></circle><path fill="white" transform="scale(.55) translate(29, -16)" d="M31.229,17.736c0.064-0.571,0.104-1.148,0.104-1.736s-0.04-1.166-0.104-1.737l-4.377-1.557c-0.218-0.716-0.504-1.401-0.851-2.05l1.993-4.192c-0.725-0.91-1.549-1.734-2.458-2.459l-4.193,1.994c-0.647-0.347-1.334-0.632-2.049-0.849l-1.558-4.378C17.165,0.708,16.588,0.667,16,0.667s-1.166,0.041-1.737,0.105L12.707,5.15c-0.716,0.217-1.401,0.502-2.05,0.849L6.464,4.005C5.554,4.73,4.73,5.554,4.005,6.464l1.994,4.192c-0.347,0.648-0.632,1.334-0.849,2.05l-4.378,1.557C0.708,14.834,0.667,15.412,0.667,16s0.041,1.165,0.105,1.736l4.378,1.558c0.217,0.715,0.502,1.401,0.849,2.049l-1.994,4.193c0.725,0.909,1.549,1.733,2.459,2.458l4.192-1.993c0.648,0.347,1.334,0.633,2.05,0.851l1.557,4.377c0.571,0.064,1.148,0.104,1.737,0.104c0.588,0,1.165-0.04,1.736-0.104l1.558-4.377c0.715-0.218,1.399-0.504,2.049-0.851l4.193,1.993c0.909-0.725,1.733-1.549,2.458-2.458l-1.993-4.193c0.347-0.647,0.633-1.334,0.851-2.049L31.229,17.736zM16,20.871c-2.69,0-4.872-2.182-4.872-4.871c0-2.69,2.182-4.872,4.872-4.872c2.689,0,4.871,2.182,4.871,4.872C20.871,18.689,18.689,20.871,16,20.871z"></path><title>Link options.</title></g></g></g></g><g   id="j_374" ><path  stroke="#aaaaaa" d="M 650 670 L 950 670" id="v-4373" stroke-width="2" stroke-dasharray="30 30" fill="none" style="opacity: 1;"></path><path  fill="black" stroke="black" d="M 0 0 0 0" transform="matrix(1,0,0,1,650,670)"></path><path  fill="#aaaaaa" stroke="#aaaaaa" d="M 20 0 L 0 10 L 20 20 z" id="v-4375" transform="matrix(-1,1.2246467991473532e-16,-1.2246467991473532e-16,-1,950,680)" style="opacity: 1;"></path><path  d="M 650 670 L 950 670" id="v-4374" fill="none" style="cursor: auto; pointer-events: visiblepainted;"></path><g ><g id="v-4364"  label-idx="0" cursor="move" transform="matrix(1,0,0,1,800,670)" style="cursor: default; opacity: 1;"><rect joint-selector="rect" id="v-4368" fill="#111111" rx="3" ry="3" pointer-events="none" width="189.52008056640625" height="176.47068786621094" transform="matrix(1,0,0,1,-94.8,-88.3)"></rect><text joint-selector="text" id="v-4367" font-size="24px" xml:space="preserve" y="0.8em" fill="#aaaaaa" text-anchor="middle" pointer-events="none" font-family="Open Sans" font-weight="normal" transform="matrix(1,0,0,1,0,-81.9)"><tspan dy="0" >create account,</tspan><tspan dy="1.2em" x="0" >get message</tspan><tspan dy="1.2em" x="0" >history, send</tspan><tspan dy="1.2em" x="0" >message to user,</tspan><tspan dy="1.2em" x="0" >make post, get</tspan><tspan dy="1.2em" x="0" >users page</tspan></text></g><g id="v-4365"  label-idx="1" cursor="move" transform="matrix(1,0,0,1,800,772)" style="cursor: default; opacity: 1;"><rect joint-selector="rect" id="v-4370" fill="#111111" rx="3" ry="3" pointer-events="none" width="85.77371215820312" height="22.631099700927734" transform="matrix(1,0,0,1,-42.9,-11.3)"></rect><text joint-selector="text" id="v-4369" font-size="17px" xml:space="preserve" y="0.8em" fill="#aaaaaa" text-anchor="middle" pointer-events="none" font-family="Open Sans" font-weight="normal" transform="matrix(1,0,0,1,0,-7.2)"><tspan dy="0" >[https:443]</tspan></text></g><g id="v-4366"  label-idx="2" cursor="move" transform="matrix(1,0,0,1,790,781.25)" style="cursor: default; opacity: 1;"><rect joint-selector="rect" id="v-4372" fill="#ffffff" rx="3" ry="3"  width="0" height="0" transform="matrix(1,0,0,1,0,0)" display="none"></rect><text joint-selector="text" id="v-4371" fill="#000000" font-size="14" text-anchor="middle" pointer-events="none"></text></g></g><g  display="none" style="display: none;"></g><g  id="v-4377" display="none"><g  id="v-4362"><path  end="source" d="M 26 0 L 0 13 L 26 26 z"></path></g><g  id="v-4363"><path  end="target" d="M 26 0 L 0 13 L 26 26 z"></path></g></g><g  id="v-4376" display="none"><g  id="v-4361" transform="translate(690, 670.0000000000001) "><g  event="remove"><circle r="11"></circle><path transform="scale(.8) translate(-16, -16)" d="M24.778,21.419 19.276,15.917 24.777,10.415 21.949,7.585 16.447,13.087 10.945,7.585 8.117,10.415 13.618,15.917 8.116,21.419 10.946,24.248 16.447,18.746 21.948,24.248z"></path><title>Remove link.</title></g><g  event="link:options"><circle r="11" transform="translate(25)"></circle><path fill="white" transform="scale(.55) translate(29, -16)" d="M31.229,17.736c0.064-0.571,0.104-1.148,0.104-1.736s-0.04-1.166-0.104-1.737l-4.377-1.557c-0.218-0.716-0.504-1.401-0.851-2.05l1.993-4.192c-0.725-0.91-1.549-1.734-2.458-2.459l-4.193,1.994c-0.647-0.347-1.334-0.632-2.049-0.849l-1.558-4.378C17.165,0.708,16.588,0.667,16,0.667s-1.166,0.041-1.737,0.105L12.707,5.15c-0.716,0.217-1.401,0.502-2.05,0.849L6.464,4.005C5.554,4.73,4.73,5.554,4.005,6.464l1.994,4.192c-0.347,0.648-0.632,1.334-0.849,2.05l-4.378,1.557C0.708,14.834,0.667,15.412,0.667,16s0.041,1.165,0.105,1.736l4.378,1.558c0.217,0.715,0.502,1.401,0.849,2.049l-1.994,4.193c0.725,0.909,1.549,1.733,2.459,2.458l4.192-1.993c0.648,0.347,1.334,0.633,2.05,0.851l1.557,4.377c0.571,0.064,1.148,0.104,1.737,0.104c0.588,0,1.165-0.04,1.736-0.104l1.558-4.377c0.715-0.218,1.399-0.504,2.049-0.851l4.193,1.993c0.909-0.725,1.733-1.549,2.458-2.458l-1.993-4.193c0.347-0.647,0.633-1.334,0.851-2.049L31.229,17.736zM16,20.871c-2.69,0-4.872-2.182-4.872-4.871c0-2.69,2.182-4.872,4.872-4.872c2.689,0,4.871,2.182,4.871,4.872C20.871,18.689,18.689,20.871,16,20.871z"></path><title>Link options.</title></g></g></g></g><g   id="j_375" ><path  stroke="#aaaaaa" d="M 1400 580 L 1700 460" id="v-4393" stroke-width="2" stroke-dasharray="30 30" fill="none" style="opacity: 1;"></path><path  fill="black" stroke="black" d="M 0 0 0 0" transform="matrix(0.9284766089996245,-0.3713908810681253,0.3713908810681253,0.9284766089996245,1400,580)"></path><path  fill="#aaaaaa" stroke="#aaaaaa" d="M 20 0 L 0 10 L 20 20 z" id="v-4395" transform="matrix(-0.928476707906966,0.37139063379983406,-0.37139063379983406,-0.928476707906966,1703.7138833780054,469.28475844614945)" style="opacity: 1;"></path><path  d="M 1400 580 L 1700 460" id="v-4394" fill="none" style="cursor: auto; pointer-events: visiblepainted;"></path><g ><g id="v-4384"  label-idx="0" cursor="move" transform="matrix(1,0,0,1,1550,520)" style="cursor: default; opacity: 1;"><rect joint-selector="rect" id="v-4388" fill="#111111" rx="3" ry="3" pointer-events="none" width="193.2868194580078" height="32.470706939697266" transform="matrix(1,0,0,1,-96.6,-16.3)"></rect><text joint-selector="text" id="v-4387" font-size="24px" xml:space="preserve" y="0.8em" fill="#aaaaaa" text-anchor="middle" pointer-events="none" font-family="Open Sans" font-weight="normal" transform="matrix(1,0,0,1,0,-9.9)"><tspan dy="0" >post notifications</tspan></text></g><g id="v-4385"  label-idx="1" cursor="move" transform="matrix(1,0,0,1,1550,547)" style="cursor: default; opacity: 1;"><rect joint-selector="rect" id="v-4390" fill="#111111" rx="3" ry="3" pointer-events="none" width="135.37149047851562" height="22.631099700927734" transform="matrix(1,0,0,1,-67.7,-11.3)"></rect><text joint-selector="text" id="v-4389" font-size="17px" xml:space="preserve" y="0.8em" fill="#aaaaaa" text-anchor="middle" pointer-events="none" font-family="Open Sans" font-weight="normal" transform="matrix(1,0,0,1,0,-7.2)"><tspan dy="0" >[http:80, grpc:80]</tspan></text></g><g id="v-4386"  label-idx="2" cursor="move" transform="matrix(1,0,0,1,1540,556.25)" style="cursor: default; opacity: 1;"><rect joint-selector="rect" id="v-4392" fill="#ffffff" rx="3" ry="3"  width="0" height="0" transform="matrix(1,0,0,1,0,0)" display="none"></rect><text joint-selector="text" id="v-4391" fill="#000000" font-size="14" text-anchor="middle" pointer-events="none"></text></g></g><g  display="none" style="display: none;"></g><g  id="v-4397" display="none"><g  id="v-4382"><path  end="source" d="M 26 0 L 0 13 L 26 26 z"></path></g><g  id="v-4383"><path  end="target" d="M 26 0 L 0 13 L 26 26 z"></path></g></g><g  id="v-4396" display="none"><g  id="v-4381" transform="translate(1437.1390676354104, 565.1443729458358) "><g  event="remove"><circle r="11"></circle><path transform="scale(.8) translate(-16, -16)" d="M24.778,21.419 19.276,15.917 24.777,10.415 21.949,7.585 16.447,13.087 10.945,7.585 8.117,10.415 13.618,15.917 8.116,21.419 10.946,24.248 16.447,18.746 21.948,24.248z"></path><title>Remove link.</title></g><g  event="link:options"><circle r="11" transform="translate(25)"></circle><path fill="white" transform="scale(.55) translate(29, -16)" d="M31.229,17.736c0.064-0.571,0.104-1.148,0.104-1.736s-0.04-1.166-0.104-1.737l-4.377-1.557c-0.218-0.716-0.504-1.401-0.851-2.05l1.993-4.192c-0.725-0.91-1.549-1.734-2.458-2.459l-4.193,1.994c-0.647-0.347-1.334-0.632-2.049-0.849l-1.558-4.378C17.165,0.708,16.588,0.667,16,0.667s-1.166,0.041-1.737,0.105L12.707,5.15c-0.716,0.217-1.401,0.502-2.05,0.849L6.464,4.005C5.554,4.73,4.73,5.554,4.005,6.464l1.994,4.192c-0.347,0.648-0.632,1.334-0.849,2.05l-4.378,1.557C0.708,14.834,0.667,15.412,0.667,16s0.041,1.165,0.105,1.736l4.378,1.558c0.217,0.715,0.502,1.401,0.849,2.049l-1.994,4.193c0.725,0.909,1.549,1.733,2.459,2.458l4.192-1.993c0.648,0.347,1.334,0.633,2.05,0.851l1.557,4.377c0.571,0.064,1.148,0.104,1.737,0.104c0.588,0,1.165-0.04,1.736-0.104l1.558-4.377c0.715-0.218,1.399-0.504,2.049-0.851l4.193,1.993c0.909-0.725,1.733-1.549,2.458-2.458l-1.993-4.193c0.347-0.647,0.633-1.334,0.851-2.049L31.229,17.736zM16,20.871c-2.69,0-4.872-2.182-4.872-4.871c0-2.69,2.182-4.872,4.872-4.872c2.689,0,4.871,2.182,4.871,4.872C20.871,18.689,18.689,20.871,16,20.871z"></path><title>Link options.</title></g></g></g></g><g   id="j_376" ><path  stroke="#aaaaaa" d="M 1400 760 L 1700 880" id="v-4413" stroke-width="2" stroke-dasharray="30 30" fill="none" style="opacity: 1;"></path><path  fill="black" stroke="black" d="M 0 0 0 0" transform="matrix(0.9284766955435519,0.371390664708372,-0.371390664708372,0.9284766955435519,1400,760)"></path><path  fill="#aaaaaa" stroke="#aaaaaa" d="M 20 0 L 0 10 L 20 20 z" id="v-4415" transform="matrix(-0.928476707906966,-0.3713906337998342,0.3713906337998342,-0.928476707906966,1696.2860707020088,889.2847451944117)" style="opacity: 1;"></path><path  d="M 1400 760 L 1700 880" id="v-4414" fill="none" style="cursor: auto; pointer-events: visiblepainted;"></path><g ><g id="v-4404"  label-idx="0" cursor="move" transform="matrix(1,0,0,1,1550,820)" style="cursor: default; opacity: 1;"><rect joint-selector="rect" id="v-4408" fill="#111111" rx="3" ry="3" pointer-events="none" width="109.85000610351562" height="61.270708084106445" transform="matrix(1,0,0,1,-54.9,-30.7)"></rect><text joint-selector="text" id="v-4407" font-size="24px" xml:space="preserve" y="0.8em" fill="#aaaaaa" text-anchor="middle" pointer-events="none" font-family="Open Sans" font-weight="normal" transform="matrix(1,0,0,1,0,-24.3)"><tspan dy="0" >post new</tspan><tspan dy="1.2em" x="0" >messages</tspan></text></g><g id="v-4405"  label-idx="1" cursor="move" transform="matrix(1,0,0,1,1550,862)" style="cursor: default; opacity: 1;"><rect joint-selector="rect" id="v-4410" fill="#111111" rx="3" ry="3" pointer-events="none" width="135.37149047851562" height="22.631099700927734" transform="matrix(1,0,0,1,-67.7,-11.3)"></rect><text joint-selector="text" id="v-4409" font-size="17px" xml:space="preserve" y="0.8em" fill="#aaaaaa" text-anchor="middle" pointer-events="none" font-family="Open Sans" font-weight="normal" transform="matrix(1,0,0,1,0,-7.2)"><tspan dy="0" >[http:80, grpc:80]</tspan></text></g><g id="v-4406"  label-idx="2" cursor="move" transform="matrix(1,0,0,1,1540,871.25)" style="cursor: default; opacity: 1;"><rect joint-selector="rect" id="v-4412" fill="#ffffff" rx="3" ry="3"  width="0" height="0" transform="matrix(1,0,0,1,0,0)" display="none"></rect><text joint-selector="text" id="v-4411" fill="#000000" font-size="14" text-anchor="middle" pointer-events="none"></text></g></g><g  display="none" style="display: none;"></g><g  id="v-4417" display="none"><g  id="v-4402"><path  end="source" d="M 26 0 L 0 13 L 26 26 z"></path></g><g  id="v-4403"><path  end="target" d="M 26 0 L 0 13 L 26 26 z"></path></g></g><g  id="v-4416" display="none"><g  id="v-4401" transform="translate(1437.1390676354104, 774.8556270541642) "><g  event="remove"><circle r="11"></circle><path transform="scale(.8) translate(-16, -16)" d="M24.778,21.419 19.276,15.917 24.777,10.415 21.949,7.585 16.447,13.087 10.945,7.585 8.117,10.415 13.618,15.917 8.116,21.419 10.946,24.248 16.447,18.746 21.948,24.248z"></path><title>Remove link.</title></g><g  event="link:options"><circle r="11" transform="translate(25)"></circle><path fill="white" transform="scale(.55) translate(29, -16)" d="M31.229,17.736c0.064-0.571,0.104-1.148,0.104-1.736s-0.04-1.166-0.104-1.737l-4.377-1.557c-0.218-0.716-0.504-1.401-0.851-2.05l1.993-4.192c-0.725-0.91-1.549-1.734-2.458-2.459l-4.193,1.994c-0.647-0.347-1.334-0.632-2.049-0.849l-1.558-4.378C17.165,0.708,16.588,0.667,16,0.667s-1.166,0.041-1.737,0.105L12.707,5.15c-0.716,0.217-1.401,0.502-2.05,0.849L6.464,4.005C5.554,4.73,4.73,5.554,4.005,6.464l1.994,4.192c-0.347,0.648-0.632,1.334-0.849,2.05l-4.378,1.557C0.708,14.834,0.667,15.412,0.667,16s0.041,1.165,0.105,1.736l4.378,1.558c0.217,0.715,0.502,1.401,0.849,2.049l-1.994,4.193c0.725,0.909,1.549,1.733,2.459,2.458l4.192-1.993c0.648,0.347,1.334,0.633,2.05,0.851l1.557,4.377c0.571,0.064,1.148,0.104,1.737,0.104c0.588,0,1.165-0.04,1.736-0.104l1.558-4.377c0.715-0.218,1.399-0.504,2.049-0.851l4.193,1.993c0.909-0.725,1.733-1.549,2.458-2.458l-1.993-4.193c0.347-0.647,0.633-1.334,0.851-2.049L31.229,17.736zM16,20.871c-2.69,0-4.872-2.182-4.872-4.871c0-2.69,2.182-4.872,4.872-4.872c2.689,0,4.871,2.182,4.871,4.872C20.871,18.689,18.689,20.871,16,20.871z"></path><title>Link options.</title></g></g></g></g></g><g ></g><g ></g><g ></g></g></svg>