<svg xmlns="http://www.w3.org/2000/svg" xmlns:xlink="http://www.w3.org/1999/xlink" version="1.1" viewBox="0 0 2370 820" style="background: #111111"><defs><style>@import url(https://fonts.googleapis.com/css?family=Open+Sans:400,700);</style></defs><defs joint-selector="defs"></defs><g joint-selector="layers"  transform="matrix(1,0,0,1,0,0)"><g ></g><g ><g   id="j_402"  transform="translate(20,782.5)"><g id="v-4698"><text  id="v-4699" font-size="22px" xml:space="preserve" y="0.8em" font-weight="normal" text-anchor="start" fill="#777777" pointer-events="none" display="block" font-family="Open Sans"><tspan dy="0" >воскресенье, 10 марта 2024 г. в 14:58 Москва, стандартное время</tspan></text></g></g><g   id="j_401"  transform="translate(20,737.5)"><g id="v-4696"><text  id="v-4697" font-size="36px" xml:space="preserve" y="0.8em" font-weight="normal" text-anchor="start" fill="#bbbbbb" pointer-events="none" display="block" font-family="Open Sans"><tspan dy="0" >search user by login or mask</tspan></text></g></g><g   id="j_403"  transform="translate(199,220)" style=""><g  id="v-4700" style="opacity: 1;"><rect  x="0" y="160" width="400" height="240" rx="70" id="v-4702" stroke="#073b6f" stroke-width="2" pointer-events="visiblePainted" fill="#08427b" style="fill: rgb(8, 66, 123); stroke: rgb(7, 59, 111);"></rect><circle  cx="200" cy="88.88888888888889" r="88.88888888888889" id="v-4701" stroke="#073b6f" stroke-width="2" pointer-events="visiblePainted" fill="#08427b" style="fill: rgb(8, 66, 123); stroke: rgb(7, 59, 111);"></circle><line  x1="80" y1="266.6666666666667" x2="80" y2="400" id="v-4708" stroke="#073b6f" stroke-width="2" style="stroke: rgb(7, 59, 111);"></line><line  x1="320" y1="266.6666666666667" x2="320" y2="400" id="v-4709" stroke="#073b6f" stroke-width="2" style="stroke: rgb(7, 59, 111);"></line><text  id="v-4703" font-size="34" xml:space="preserve" y="0.8em" font-weight="bold" text-anchor="middle" pointer-events="visible" font-family="Open Sans" fill="#ffffff" transform="matrix(1,0,0,1,200,243.1)" style="fill: rgb(255, 255, 255);"><tspan dy="0" >User</tspan></text><text  id="v-4704" font-size="17" xml:space="preserve" y="0.8em" text-anchor="middle" font-family="Open Sans" fill="#ffffff" transform="matrix(1,0,0,1,200,285.6)" style="fill: rgb(255, 255, 255);"><tspan dy="0" >[Person]</tspan></text><text  id="v-4705" font-size="24" xml:space="preserve" display="none" y="0.8em" text-anchor="middle" font-family="Open Sans" fill="#ffffff" transform="matrix(1,0,0,1,200,316.9)" style="fill: rgb(255, 255, 255);"><tspan dy="0" style="fill-opacity: 0; stroke-opacity: 0;" >-</tspan></text><g  id="v-4706" font-weight="normal" text-anchor="middle" color="#ffffff" transform="matrix(1,0,0,1,197.5,326.9)" display="none" style="fill: rgb(255, 255, 255);"><g ></g><g ></g><g ></g><g ></g></g><image  id="v-4707"></image></g></g><g   id="j_405"  transform="translate(929,200)" style=""><g id="v-4723"><rect  id="v-4724" width="1240" height="411" rx="0" ry="0" fill="#111111" stroke="#0f5eaa" stroke-width="1" stroke-dasharray="20,20" pointer-events="none"></rect><text  id="v-4725" font-size="24px" xml:space="preserve" y="372" font-weight="normal" fill="#0f5eaa" text-anchor="start" pointer-events="visible" font-family="Open Sans" transform="matrix(1,0,0,1,15,0)"><tspan dy="0" >X-Tagram</tspan></text><text  id="v-4726" font-size="17px" xml:space="preserve" y="396" font-weight="normal" fill="#0f5eaa" text-anchor="start" pointer-events="visible" font-family="Open Sans" transform="matrix(1,0,0,1,15,0)"><tspan dy="0" >[Software System]</tspan></text><image  id="v-4727" pointer-events="visible"></image></g></g><g   id="j_404"  transform="translate(949,220)" style=""><g  id="v-4716" style="opacity: 1;"><rect  id="v-4717" rx="20" ry="20" stroke="#3c7fc0" stroke-width="2" pointer-events="visiblePainted" fill="#438dd5" width="450" height="300" style="fill: rgb(67, 141, 213); stroke: rgb(60, 127, 192);"></rect><text  id="v-4718" font-size="34" xml:space="preserve" y="0.8em" font-weight="bold" text-anchor="middle" pointer-events="visible" font-family="Open Sans" fill="#ffffff" transform="matrix(1,0,0,1,225,83.1)" style="fill: rgb(255, 255, 255);"><tspan dy="0" >NativeApplication</tspan></text><text  id="v-4719" font-size="17" xml:space="preserve" y="0.8em" text-anchor="middle" font-family="Open Sans" fill="#ffffff" transform="matrix(1,0,0,1,225,125.6)" style="fill: rgb(255, 255, 255);"><tspan dy="0" >[Container]</tspan></text><text  id="v-4720" font-size="24" xml:space="preserve" y="0.8em" text-anchor="middle" font-family="Open Sans" fill="#ffffff" transform="matrix(1,0,0,1,225,156.9)" style="fill: rgb(255, 255, 255);"><tspan dy="0" >Application for user to</tspan><tspan dy="1.2em" x="0" >communicate with sistem</tspan></text><g  id="v-4721" color="#ffffff" transform="matrix(1,0,0,1,222.5,226.9)" display="none" style="fill: rgb(255, 255, 255);"><g ></g><g ></g><g ></g><g ></g></g><image  id="v-4722"></image></g></g><g   id="j_406"  transform="translate(1699,220)" style=""><g  id="v-4731" style="opacity: 1;"><rect  id="v-4732" rx="20" ry="20" stroke="#3c7fc0" stroke-width="2" pointer-events="visiblePainted" fill="#438dd5" width="450" height="300" style="fill: rgb(67, 141, 213); stroke: rgb(60, 127, 192);"></rect><text  id="v-4733" font-size="34" xml:space="preserve" y="0.8em" font-weight="bold" text-anchor="middle" pointer-events="visible" font-family="Open Sans" fill="#ffffff" transform="matrix(1,0,0,1,225,98.1)" style="fill: rgb(255, 255, 255);"><tspan dy="0" >SearchEngine</tspan></text><text  id="v-4734" font-size="17" xml:space="preserve" y="0.8em" text-anchor="middle" font-family="Open Sans" fill="#ffffff" transform="matrix(1,0,0,1,225,140.6)" style="fill: rgb(255, 255, 255);"><tspan dy="0" >[Container]</tspan></text><text  id="v-4735" font-size="24" xml:space="preserve" y="0.8em" text-anchor="middle" font-family="Open Sans" fill="#ffffff" transform="matrix(1,0,0,1,225,171.9)" style="fill: rgb(255, 255, 255);"><tspan dy="0" >Stores index for fast serch user</tspan></text><g  id="v-4736" color="#ffffff" transform="matrix(1,0,0,1,210,211.9)" display="none" style="fill: rgb(255, 255, 255);"><g  transform="translate(5 0)"><svg xmlns="http://www.w3.org/2000/svg" width="20" height="20" fill="currentColor" viewBox="0 0 16 16"><path fill-rule="evenodd" d="M6.5 12a5.5 5.5 0 1 0 0-11 5.5 5.5 0 0 0 0 11zM13 6.5a6.5 6.5 0 1 1-13 0 6.5 6.5 0 0 1 13 0z"></path><path d="M10.344 11.742c.03.04.062.078.098.115l3.85 3.85a1 1 0 0 0 1.415-1.414l-3.85-3.85a1.007 1.007 0 0 0-.115-.1 6.538 6.538 0 0 1-1.398 1.4z"></path><path fill-rule="evenodd" d="M6.5 3a.5.5 0 0 1 .5.5V6h2.5a.5.5 0 0 1 0 1H7v2.5a.5.5 0 0 1-1 0V7H3.5a.5.5 0 0 1 0-1H6V3.5a.5.5 0 0 1 .5-.5z"></path></svg></g><g ></g><g ></g><g ></g></g><image  id="v-4737"></image></g></g><g   id="j_407" ><path  stroke="#aaaaaa" d="M 599 407 L 949 385" id="v-4750" stroke-width="2" stroke-dasharray="30 30" fill="none"></path><path  fill="black" stroke="black" d="M 0 0 0 0" transform="matrix(0.9979254233653851,-0.06438050482107736,0.06438050482107736,0.9979254233653851,599,407.1000061035156)"></path><path  fill="#aaaaaa" stroke="#aaaaaa" d="M 20 0 L 0 10 L 20 20 z" id="v-4752" transform="matrix(-0.9979254233653853,0.0643805048210768,-0.0643805048210768,-0.9979254233653853,949.6438112349896,394.49926754481805)"></path><path  d="M 599 407 L 949 385" id="v-4751" fill="none" style="cursor: auto; pointer-events: visiblepainted;"></path><g ><g id="v-4744"  label-idx="0" cursor="move" transform="matrix(1,0,0,1,774,396)" style="cursor: default;"><rect joint-selector="rect" id="v-4747" fill="#111111" rx="3" ry="3" pointer-events="none" width="194.3406219482422" height="60.77619552612305" transform="matrix(1,0,0,1,-97.2,-30.4)"></rect><text joint-selector="text" id="v-4746" font-size="24px" xml:space="preserve" y="0.8em" fill="#aaaaaa" text-anchor="middle" pointer-events="none" font-family="Open Sans" font-weight="normal" transform="matrix(1,0,0,1,0,-24.2)"><tspan dy="0" >1: Seach uaser by</tspan><tspan dy="1.2em" x="0" >login or mask</tspan></text></g><g id="v-4745"  label-idx="1" cursor="move" transform="matrix(1,0,0,1,764,438)" style="cursor: default;"><rect joint-selector="rect" id="v-4749" fill="#ffffff" rx="3" ry="3"  width="0" height="0" transform="matrix(1,0,0,1,0,0)" display="none"></rect><text joint-selector="text" id="v-4748" fill="#000000" font-size="14" text-anchor="middle" pointer-events="none"></text></g></g><g  display="none" style="display: none;"></g><g  id="v-4754" display="none"><g  id="v-4742"><path  end="source" d="M 26 0 L 0 13 L 26 26 z"></path></g><g  id="v-4743"><path  end="target" d="M 26 0 L 0 13 L 26 26 z"></path></g></g><g  id="v-4753" display="none"><g  id="v-4741" transform="translate(638.921212981956, 404.4906666125628) "><g  event="remove"><circle r="11"></circle><path transform="scale(.8) translate(-16, -16)" d="M24.778,21.419 19.276,15.917 24.777,10.415 21.949,7.585 16.447,13.087 10.945,7.585 8.117,10.415 13.618,15.917 8.116,21.419 10.946,24.248 16.447,18.746 21.948,24.248z"></path><title>Remove link.</title></g><g  event="link:options"><circle r="11" transform="translate(25)"></circle><path fill="white" transform="scale(.55) translate(29, -16)" d="M31.229,17.736c0.064-0.571,0.104-1.148,0.104-1.736s-0.04-1.166-0.104-1.737l-4.377-1.557c-0.218-0.716-0.504-1.401-0.851-2.05l1.993-4.192c-0.725-0.91-1.549-1.734-2.458-2.459l-4.193,1.994c-0.647-0.347-1.334-0.632-2.049-0.849l-1.558-4.378C17.165,0.708,16.588,0.667,16,0.667s-1.166,0.041-1.737,0.105L12.707,5.15c-0.716,0.217-1.401,0.502-2.05,0.849L6.464,4.005C5.554,4.73,4.73,5.554,4.005,6.464l1.994,4.192c-0.347,0.648-0.632,1.334-0.849,2.05l-4.378,1.557C0.708,14.834,0.667,15.412,0.667,16s0.041,1.165,0.105,1.736l4.378,1.558c0.217,0.715,0.502,1.401,0.849,2.049l-1.994,4.193c0.725,0.909,1.549,1.733,2.459,2.458l4.192-1.993c0.648,0.347,1.334,0.633,2.05,0.851l1.557,4.377c0.571,0.064,1.148,0.104,1.737,0.104c0.588,0,1.165-0.04,1.736-0.104l1.558-4.377c0.715-0.218,1.399-0.504,2.049-0.851l4.193,1.993c0.909-0.725,1.733-1.549,2.458-2.458l-1.993-4.193c0.347-0.647,0.633-1.334,0.851-2.049L31.229,17.736zM16,20.871c-2.69,0-4.872-2.182-4.872-4.871c0-2.69,2.182-4.872,4.872-4.872c2.689,0,4.871,2.182,4.871,4.872C20.871,18.689,18.689,20.871,16,20.871z"></path><title>Link options.</title></g></g></g></g><g   id="j_408" ><path  stroke="#aaaaaa" d="M 1399 370 L 1699 370" id="v-4770" stroke-width="2" stroke-dasharray="30 30" fill="none"></path><path  fill="black" stroke="black" d="M 0 0 0 0" transform="matrix(1,0,0,1,1399,370)"></path><path  fill="#aaaaaa" stroke="#aaaaaa" d="M 20 0 L 0 10 L 20 20 z" id="v-4772" transform="matrix(-1,1.2246467991473532e-16,-1.2246467991473532e-16,-1,1699,379.99999999999994)"></path><path  d="M 1399 370 L 1699 370" id="v-4771" fill="none" style="cursor: auto; pointer-events: visiblepainted;"></path><g ><g id="v-4761"  label-idx="0" cursor="move" transform="matrix(1,0,0,1,1549,370)" style="cursor: default;"><rect joint-selector="rect" id="v-4765" fill="#111111" rx="3" ry="3" pointer-events="none" width="114.2972640991211" height="60.77619552612305" transform="matrix(1,0,0,1,-57.1,-30.4)"></rect><text joint-selector="text" id="v-4764" font-size="24px" xml:space="preserve" y="0.8em" fill="#aaaaaa" text-anchor="middle" pointer-events="none" font-family="Open Sans" font-weight="normal" transform="matrix(1,0,0,1,0,-24.2)"><tspan dy="0" >2: Query</tspan><tspan dy="1.2em" x="0" >statement</tspan></text></g><g id="v-4762"  label-idx="1" cursor="move" transform="matrix(1,0,0,1,1549,412)" style="cursor: default;"><rect joint-selector="rect" id="v-4767" fill="#111111" rx="3" ry="3" pointer-events="none" width="85.77438354492188" height="22.57143211364746" transform="matrix(1,0,0,1,-42.9,-11.3)"></rect><text joint-selector="text" id="v-4766" font-size="17px" xml:space="preserve" y="0.8em" fill="#aaaaaa" text-anchor="middle" pointer-events="none" font-family="Open Sans" font-weight="normal" transform="matrix(1,0,0,1,0,-7)"><tspan dy="0" >[https:443]</tspan></text></g><g id="v-4763"  label-idx="2" cursor="move" transform="matrix(1,0,0,1,1539,421.25)" style="cursor: default;"><rect joint-selector="rect" id="v-4769" fill="#ffffff" rx="3" ry="3"  width="0" height="0" transform="matrix(1,0,0,1,0,0)" display="none"></rect><text joint-selector="text" id="v-4768" fill="#000000" font-size="14" text-anchor="middle" pointer-events="none"></text></g></g><g  display="none" style="display: none;"></g><g  id="v-4774" display="none"><g  id="v-4759"><path  end="source" d="M 26 0 L 0 13 L 26 26 z"></path></g><g  id="v-4760"><path  end="target" d="M 26 0 L 0 13 L 26 26 z"></path></g></g><g  id="v-4773" display="none"><g  id="v-4758" transform="translate(1439, 370) "><g  event="remove"><circle r="11"></circle><path transform="scale(.8) translate(-16, -16)" d="M24.778,21.419 19.276,15.917 24.777,10.415 21.949,7.585 16.447,13.087 10.945,7.585 8.117,10.415 13.618,15.917 8.116,21.419 10.946,24.248 16.447,18.746 21.948,24.248z"></path><title>Remove link.</title></g><g  event="link:options"><circle r="11" transform="translate(25)"></circle><path fill="white" transform="scale(.55) translate(29, -16)" d="M31.229,17.736c0.064-0.571,0.104-1.148,0.104-1.736s-0.04-1.166-0.104-1.737l-4.377-1.557c-0.218-0.716-0.504-1.401-0.851-2.05l1.993-4.192c-0.725-0.91-1.549-1.734-2.458-2.459l-4.193,1.994c-0.647-0.347-1.334-0.632-2.049-0.849l-1.558-4.378C17.165,0.708,16.588,0.667,16,0.667s-1.166,0.041-1.737,0.105L12.707,5.15c-0.716,0.217-1.401,0.502-2.05,0.849L6.464,4.005C5.554,4.73,4.73,5.554,4.005,6.464l1.994,4.192c-0.347,0.648-0.632,1.334-0.849,2.05l-4.378,1.557C0.708,14.834,0.667,15.412,0.667,16s0.041,1.165,0.105,1.736l4.378,1.558c0.217,0.715,0.502,1.401,0.849,2.049l-1.994,4.193c0.725,0.909,1.549,1.733,2.459,2.458l4.192-1.993c0.648,0.347,1.334,0.633,2.05,0.851l1.557,4.377c0.571,0.064,1.148,0.104,1.737,0.104c0.588,0,1.165-0.04,1.736-0.104l1.558-4.377c0.715-0.218,1.399-0.504,2.049-0.851l4.193,1.993c0.909-0.725,1.733-1.549,2.458-2.458l-1.993-4.193c0.347-0.647,0.633-1.334,0.851-2.049L31.229,17.736zM16,20.871c-2.69,0-4.872-2.182-4.872-4.871c0-2.69,2.182-4.872,4.872-4.872c2.689,0,4.871,2.182,4.871,4.872C20.871,18.689,18.689,20.871,16,20.871z"></path><title>Link options.</title></g></g></g></g></g><g ></g><g ></g><g ></g></g></svg>